<?xml version="1.0" encoding="UTF-8"?>
<svg width="25px" height="21px" viewBox="0 0 25 21" version="1.1" xmlns="http://www.w3.org/2000/svg" xmlns:xlink="http://www.w3.org/1999/xlink">
    <!-- Generator: sketchtool 52.3 (67297) - http://www.bohemiancoding.com/sketch -->
    <title>1B6E411E-522A-45C9-BEFE-A8EF18F507B5</title>
    <desc>Created with sketchtool.</desc>
    <g id="Page-1" stroke="none" stroke-width="1" fill="none" fill-rule="evenodd">
        <g id="student---edit-personal-details-saving" transform="translate(-487.000000, -319.000000)" fill="#999999" fill-rule="nonzero">
            <g id="details" transform="translate(433.000000, 156.000000)">
                <path d="M78.6938714,171.15099 C79.9526554,175.796059 77.2161684,180.496426 72.5641405,181.712992 C68.0215721,182.929558 63.3148144,180.164636 62.1107602,175.574865 C61.6181925,173.694718 61.7823817,171.759273 62.4938683,170.045021 C62.4938683,170.045021 62.5485981,170.045021 62.5485981,170.045021 C62.6033278,170.045021 62.6033278,170.045021 62.6033278,170.045021 C62.6580576,170.045021 62.6580576,170.045021 62.6580576,170.045021 C62.7127873,170.045021 62.7127873,170.045021 62.7127873,170.045021 C62.767517,170.045021 62.767517,170.045021 62.767517,170.045021 C62.8222468,170.045021 62.8222468,170.045021 62.8222468,170.045021 C62.8769765,170.045021 62.8769765,170.045021 62.8769765,170.045021 C62.9317063,170.045021 62.9317063,170.045021 62.9317063,170.045021 C62.986436,170.045021 62.986436,170.045021 62.986436,170.045021 C63.0411657,170.045021 63.0411657,170.045021 63.0411657,170.045021 C63.0411657,170.045021 63.0958955,170.045021 63.0958955,170.045021 C63.0958955,170.045021 63.1506252,170.045021 63.1506252,170.045021 C63.4242739,169.989723 63.6979226,169.768529 63.8073821,169.436738 L64.6283282,167.058905 C64.6830579,167.003607 64.6830579,167.003607 64.7377877,166.948309 L64.9567066,166.89301 L67.0911665,166.229429 C67.4195449,166.118832 67.6384639,165.84234 67.7479234,165.510549 C67.7479234,165.510549 67.7479234,165.455251 67.7479234,165.455251 C67.7479234,165.455251 67.7479234,165.399952 67.7479234,165.399952 C67.7479234,165.344654 67.7479234,165.289355 67.7479234,165.234057 C67.9121126,165.178759 68.0763018,165.12346 68.240491,165.068162 C72.7830595,163.796298 77.4898171,166.56122 78.6938714,171.15099 Z M72.3452215,180.662322 C76.2857628,179.556353 78.6391416,175.464268 77.5992766,171.482781 C77.2161684,170.10032 76.5046818,168.939052 75.5195465,167.998979 L72.3999513,168.828456 L70.3202212,166.505921 L69.6634643,169.547335 L63.3148144,171.261587 C62.9317063,172.588749 62.8769765,173.97121 63.2600847,175.353671 C64.2999498,179.335159 68.4046803,181.712992 72.3452215,180.662322 Z M60.6877869,167.501293 C60.468868,167.280099 60.5783274,166.89301 60.8519761,166.837712 L63.5337334,166.008235 L64.464139,163.298612 C64.5735985,162.966821 64.9567066,162.911522 65.1756256,163.132716 L67.0364368,165.068162 C67.2553557,165.289355 67.1458962,165.621146 66.8722475,165.731743 L64.1904903,166.56122 L63.2600847,169.270843 C63.1506252,169.602634 62.767517,169.657932 62.5485981,169.436738 L60.6877869,167.501293 Z M61.9465709,169.657932 C61.3992735,170.598006 60.7425167,171.86987 59.9763003,173.141734 C59.2100839,174.3583 58.3344081,175.021881 57.4587323,174.911284 C56.5830564,174.800687 55.6526508,173.97121 54.8864345,172.975839 C54.1202181,171.925168 53.518191,170.874498 53.2445423,170.155618 C52.9708936,169.436738 52.9161638,169.049649 53.1350828,169.049649 C53.5729207,169.049649 54.6675155,169.934424 55.6526508,169.823827 C56.6377862,169.768529 57.5681917,168.883754 58.4985973,167.501293 C59.3742732,166.17413 60.4141382,165.012863 61.508733,164.902266 C62.1107602,164.791669 62.767517,165.068162 63.205355,165.344654 L63.1506252,165.455251 L60.6877869,166.229429 C60.3594085,166.340026 60.1404895,166.616518 60.03103,166.948309 C59.9215706,167.280099 60.03103,167.61189 60.249949,167.888382 L61.9465709,169.657932 Z M73.9062053,172.492978 C73.293096,172.657253 72.6615182,172.288235 72.4955368,171.668755 C72.3295553,171.049275 72.6920241,170.413916 73.3051334,170.249642 C73.9182427,170.085368 74.5498205,170.454385 74.7158019,171.073865 C74.8817833,171.693345 74.5193146,172.328704 73.9062053,172.492978 Z M73.3850866,175.353671 C73.9871137,175.077179 74.6438706,175.464268 74.6438706,176.072551 C74.6438706,177.233818 73.713465,178.450384 71.9621134,178.94807 C70.2107617,179.390458 68.7877884,178.782175 68.1857613,177.842101 C67.8573829,177.289117 68.1857613,176.625536 68.8425182,176.570237 C70.4296806,176.45964 71.9621134,176.072551 73.3850866,175.353671 Z M67.0149539,174.375359 C66.4018446,174.539634 65.7702668,174.170616 65.6042853,173.551136 C65.4383039,172.931656 65.8007727,172.296298 66.413882,172.132023 C67.0269912,171.967749 67.6585691,172.336766 67.8245505,172.956246 C67.9905319,173.575726 67.6280632,174.211085 67.0149539,174.375359 Z" id="Combined-Shape" transform="translate(66.000000, 172.500000) rotate(14.000000) translate(-66.000000, -172.500000) "></path>
            </g>
        </g>
    </g>
</svg>