<?xml version="1.0" encoding="utf-8"?>
<!-- Generator: Adobe Illustrator 22.1.0, SVG Export Plug-In . SVG Version: 6.00 Build 0)  -->
<svg version="1.1" id="Layer_1" xmlns="http://www.w3.org/2000/svg" xmlns:xlink="http://www.w3.org/1999/xlink" x="0px" y="0px"
	 viewBox="0 0 27 22" style="enable-background:new 0 0 27 22;" xml:space="preserve">
<style type="text/css">
	.st0{fill:#999999;}
	.st1{fill:#8249D1;}
	.st2{fill:none;}
</style>
<path class="st0" d="M25.7,11.5c0.1,4.8-3.7,8.7-8.5,8.8c-4.7,0.1-8.6-3.7-8.7-8.5c0-1.9,0.6-3.8,1.7-5.3l0.1,0c0.1,0,0.1,0,0.1,0
	c0.1,0,0.1,0,0.1,0c0.1,0,0.1,0,0.1,0c0.1,0,0.1,0,0.1,0c0.1,0,0.1,0,0.1,0c0.1,0,0.1,0,0.1,0c0.1,0,0.1,0,0.1,0c0.1,0,0.1,0,0.1,0
	c0.1,0,0.1,0,0.1,0l0.1,0l0.1,0c0.3,0,0.6-0.1,0.8-0.4L13,4.2c0.1,0,0.1,0,0.1-0.1l0.2,0L15.6,4c0.3,0,0.6-0.2,0.8-0.5l0-0.1l0-0.1
	c0-0.1,0-0.1,0-0.2c0.2,0,0.3,0,0.5,0C21.7,3,25.6,6.8,25.7,11.5z M17.2,19.2c4.1-0.1,7.4-3.5,7.3-7.6c0-1.4-0.4-2.7-1.2-3.9
	l-3.2,0.1L18.7,5l-1.4,2.8l-6.6,0.1c-0.7,1.2-1.1,2.5-1,4C9.7,16,13.1,19.3,17.2,19.2z M9.1,3.6C8.9,3.4,9.1,3,9.4,3l2.8-0.2
	l1.6-2.4c0.2-0.3,0.6-0.3,0.7,0l1.3,2.3c0.2,0.3,0,0.6-0.3,0.6l-2.8,0.2L11.1,6c-0.2,0.3-0.6,0.3-0.7,0L9.1,3.6z M9.8,6
	C9,6.8,8.1,7.9,7,8.9c-1,1-2,1.4-2.9,1.1c-0.8-0.3-1.5-1.3-2-2.5C1.6,6.4,1.3,5.2,1.2,4.4C1.1,3.7,1.2,3.3,1.4,3.3
	c0.4,0.1,1.3,1.2,2.3,1.4c1,0.2,2.1-0.4,3.3-1.6c1.2-1.1,2.5-2,3.5-1.8c0.6,0,1.2,0.5,1.5,0.8L12,2.3L9.4,2.4C9,2.4,8.8,2.7,8.6,3
	c-0.2,0.3-0.2,0.6,0,1L9.8,6z M20.7,11.7c-0.6,0-1.2-0.5-1.2-1.1c0-0.6,0.5-1.2,1.1-1.2c0.6,0,1.2,0.5,1.2,1.1S21.3,11.7,20.7,11.7z
	 M19.5,14.3c0.7-0.1,1.2,0.4,1,1c-0.3,1.1-1.5,2.1-3.3,2.1c-1.8,0-3-0.9-3.4-2c-0.2-0.6,0.3-1.2,0.9-1.1
	C16.4,14.7,17.9,14.7,19.5,14.3z M13.5,11.8c-0.6,0-1.2-0.5-1.2-1.1c0-0.6,0.5-1.2,1.1-1.2c0.6,0,1.2,0.5,1.2,1.1
	C14.7,11.3,14.2,11.8,13.5,11.8z"/>
<rect class="st2" width="27" height="22"/>
</svg>
