<svg xmlns="http://www.w3.org/2000/svg" viewBox="0 0 27 22">
  <path d="M25.6059738,9.01378408 C26.8647578,13.658853 24.1282708,18.3592204 19.4762429,19.5757861 C14.9336745,20.7923518 10.2269169,18.0274298 9.02286261,13.4376593 C8.53029495,11.5575123 8.69448417,9.62206691 9.40597079,7.90781528 C9.40597079,7.90781528 9.46070053,7.90781528 9.46070053,7.90781528 C9.51543027,7.90781528 9.51543027,7.90781528 9.51543027,7.90781528 C9.57016001,7.90781528 9.57016001,7.90781528 9.57016001,7.90781528 C9.62488975,7.90781528 9.62488975,7.90781528 9.62488975,7.90781528 C9.67961949,7.90781528 9.67961949,7.90781528 9.67961949,7.90781528 C9.73434923,7.90781528 9.73434923,7.90781528 9.73434923,7.90781528 C9.78907897,7.90781528 9.78907897,7.90781528 9.78907897,7.90781528 C9.84380871,7.90781528 9.84380871,7.90781528 9.84380871,7.90781528 C9.89853845,7.90781528 9.89853845,7.90781528 9.89853845,7.90781528 C9.95326819,7.90781528 9.95326819,7.90781528 9.95326819,7.90781528 C9.95326819,7.90781528 10.0079979,7.90781528 10.0079979,7.90781528 C10.0079979,7.90781528 10.0627277,7.90781528 10.0627277,7.90781528 C10.3363764,7.85251684 10.6100251,7.63132308 10.7194845,7.29953244 L11.5404306,4.92169953 C11.5951604,4.86640109 11.5951604,4.86640109 11.6498901,4.81110265 L11.8688091,4.75580421 L14.0032689,4.09222293 C14.3316474,3.98162605 14.5505663,3.70513385 14.6600258,3.37334321 C14.6600258,3.37334321 14.6600258,3.31804477 14.6600258,3.31804477 C14.6600258,3.31804477 14.6600258,3.26274633 14.6600258,3.26274633 C14.6600258,3.20744789 14.6600258,3.15214945 14.6600258,3.09685101 C14.824215,3.04155257 14.9884043,2.98625413 15.1525935,2.93095569 C19.6951619,1.65909158 24.4019195,4.42401357 25.6059738,9.01378408 Z M19.257324,18.5251157 C23.1978653,17.4191469 25.5512441,13.3270624 24.511379,9.34557471 C24.1282708,7.96311372 23.4167842,6.80184648 22.4316489,5.861773 L19.3120537,6.6912496 L17.2323236,4.36871513 L16.5755667,7.41012932 L10.2269169,9.12438095 C9.84380871,10.4515435 9.78907897,11.8340045 10.1721871,13.2164655 C11.2120522,17.1979532 15.3167827,19.5757861 19.257324,18.5251157 Z M7.59988937,5.36408705 C7.38097041,5.14289329 7.49042989,4.75580421 7.76407859,4.70050577 L10.4458358,3.87102917 L11.3762414,1.16140562 C11.4857009,0.829614979 11.8688091,0.774316539 12.087728,0.995510298 L13.9485392,2.93095569 C14.1674582,3.15214945 14.0579987,3.48394009 13.78435,3.59453697 L11.1025927,4.42401357 L10.1721871,7.13363712 C10.0627277,7.46542776 9.67961949,7.5207262 9.46070053,7.29953244 L7.59988937,5.36408705 Z M8.85867339,7.5207262 C8.31137599,8.46079968 7.65461911,9.73266379 6.88840275,11.0045279 C6.12218639,12.2210936 5.24651055,12.8846749 4.37083471,12.774078 C3.49515887,12.6634811 2.56475329,11.8340045 1.79853693,10.8386326 C1.03232057,9.78796223 0.430293435,8.73729188 0.156644735,8.01841216 C-0.117003965,7.29953244 -0.171733705,6.91244336 0.047185255,6.91244336 C0.485023175,6.91244336 1.57961797,7.7972184 2.56475329,7.68662152 C3.54988861,7.63132308 4.48029419,6.74654804 5.41069977,5.36408705 C6.28637561,4.03692449 7.32624067,2.87565725 8.42083547,2.76506037 C9.02286261,2.65446349 9.67961949,2.93095569 10.1174574,3.20744789 L10.0627277,3.31804477 L7.59988937,4.09222293 C7.27151093,4.20281981 7.05259197,4.47931201 6.94313249,4.81110265 C6.83367301,5.14289329 6.94313249,5.47468393 7.16205145,5.75117612 L8.85867339,7.5207262 Z M20.8183077,10.3557721 C20.2051985,10.5200466 19.5736206,10.1510295 19.4076392,9.53154931 C19.2416578,8.91206917 19.6041265,8.27671054 20.2172358,8.1124361 C20.8303451,7.94816165 21.4619229,8.31717878 21.6279044,8.93665893 C21.7938858,9.55613907 21.431417,10.1914977 20.8183077,10.3557721 Z M20.297189,13.2164655 C20.8992162,12.9399733 21.5559731,13.3270624 21.5559731,13.9353452 C21.5559731,15.0966125 20.6255675,16.3131781 18.8742158,16.8108641 C17.1228641,17.2532516 15.6998909,16.6449688 15.0978637,15.7048953 C14.7694853,15.1519109 15.0978637,14.4883296 15.7546206,14.4330312 C17.3417831,14.3224343 18.8742158,13.9353452 20.297189,13.2164655 Z M13.9270563,12.2381532 C13.313947,12.4024276 12.6823692,12.0334105 12.5163878,11.4139303 C12.3504064,10.7944502 12.7128751,10.1590915 13.3259844,9.99481711 C13.9390937,9.83054266 14.5706715,10.1995598 14.7366529,10.8190399 C14.9026344,11.4385201 14.5401656,12.0738787 13.9270563,12.2381532 Z" transform="rotate(14 12.912 10.363)"/>
</svg>
