<?xml version="1.0" encoding="UTF-8"?>
<svg width="25px" height="21px" viewBox="0 0 25 21" version="1.1" xmlns="http://www.w3.org/2000/svg" xmlns:xlink="http://www.w3.org/1999/xlink">
    <!-- Generator: sketchtool 52.3 (67297) - http://www.bohemiancoding.com/sketch -->
    <title>7B0109EF-FBA6-4402-B778-4FEC2B5D01FB</title>
    <desc>Created with sketchtool.</desc>
    <g id="Page-1" stroke="none" stroke-width="1" fill="none" fill-rule="evenodd">
        <g id="student---edit-personal-details-saved" transform="translate(-487.000000, -319.000000)" fill="#8249D1" fill-rule="nonzero">
            <g id="Group-2" transform="translate(483.000000, 315.000000)">
                <path d="M28.6938714,12.15099 C29.9526554,16.796059 27.2161684,21.4964264 22.5641405,22.712992 C18.0215721,23.9295577 13.3148144,21.1646357 12.1107602,16.5748652 C11.6181925,14.6947183 11.7823817,12.7592729 12.4938683,11.0450212 C12.4938683,11.0450212 12.5485981,11.0450212 12.5485981,11.0450212 C12.6033278,11.0450212 12.6033278,11.0450212 12.6033278,11.0450212 C12.6580576,11.0450212 12.6580576,11.0450212 12.6580576,11.0450212 C12.7127873,11.0450212 12.7127873,11.0450212 12.7127873,11.0450212 C12.767517,11.0450212 12.767517,11.0450212 12.767517,11.0450212 C12.8222468,11.0450212 12.8222468,11.0450212 12.8222468,11.0450212 C12.8769765,11.0450212 12.8769765,11.0450212 12.8769765,11.0450212 C12.9317063,11.0450212 12.9317063,11.0450212 12.9317063,11.0450212 C12.986436,11.0450212 12.986436,11.0450212 12.986436,11.0450212 C13.0411657,11.0450212 13.0411657,11.0450212 13.0411657,11.0450212 C13.0411657,11.0450212 13.0958955,11.0450212 13.0958955,11.0450212 C13.0958955,11.0450212 13.1506252,11.0450212 13.1506252,11.0450212 C13.4242739,10.9897228 13.6979226,10.768529 13.8073821,10.4367384 L14.6283282,8.05890548 C14.6830579,8.00360704 14.6830579,8.00360704 14.7377877,7.9483086 L14.9567066,7.89301016 L17.0911665,7.22942889 C17.4195449,7.11883201 17.6384639,6.84233981 17.7479234,6.51054917 C17.7479234,6.51054917 17.7479234,6.45525073 17.7479234,6.45525073 C17.7479234,6.45525073 17.7479234,6.39995229 17.7479234,6.39995229 C17.7479234,6.34465385 17.7479234,6.28935541 17.7479234,6.23405697 C17.9121126,6.17875853 18.0763018,6.12346009 18.240491,6.06816165 C22.7830595,4.79629753 27.4898171,7.56121953 28.6938714,12.15099 Z M22.3452215,21.6623217 C26.2857628,20.5563529 28.6391416,16.4642683 27.5992766,12.4827807 C27.2161684,11.1003197 26.5046818,9.93905244 25.5195465,8.99897896 L22.3999513,9.82845556 L20.3202212,7.50592109 L19.6634643,10.5473353 L13.3148144,12.2615869 C12.9317063,13.5887495 12.8769765,14.9712105 13.2600847,16.3536715 C14.2999498,20.3351591 18.4046803,22.712992 22.3452215,21.6623217 Z M10.6877869,8.501293 C10.468868,8.28009924 10.5783274,7.89301016 10.8519761,7.83771173 L13.5337334,7.00823513 L14.464139,4.29861158 C14.5735985,3.96682094 14.9567066,3.9115225 15.1756256,4.13271626 L17.0364368,6.06816165 C17.2553557,6.28935541 17.1458962,6.62114605 16.8722475,6.73174293 L14.1904903,7.56121953 L13.2600847,10.2708431 C13.1506252,10.6026337 12.767517,10.6579322 12.5485981,10.4367384 L10.6877869,8.501293 Z M11.9465709,10.6579322 C11.3992735,11.5980056 10.7425167,12.8698698 9.9763003,14.1417339 C9.21008394,15.3582995 8.3344081,16.0218808 7.45873226,15.9112839 C6.58305642,15.8006871 5.65265084,14.9712105 4.88643448,13.9758385 C4.12021812,12.9251682 3.51819098,11.8744978 3.24454229,11.1556181 C2.97089359,10.4367384 2.91616385,10.0496493 3.13508281,10.0496493 C3.57292072,10.0496493 4.66751552,10.9344244 5.65265084,10.8238275 C6.63778616,10.768529 7.56819174,9.883754 8.49859732,8.501293 C9.37427316,7.17413045 10.4141382,6.01286321 11.508733,5.90226633 C12.1107602,5.79166945 12.767517,6.06816165 13.205355,6.34465385 L13.1506252,6.45525073 L10.6877869,7.22942889 C10.3594085,7.34002577 10.1404895,7.61651797 10.03103,7.9483086 C9.92157056,8.28009924 10.03103,8.61188988 10.249949,8.88838208 L11.9465709,10.6579322 Z M23.9062053,13.4929781 C23.293096,13.6572525 22.6615182,13.2882354 22.4955368,12.6687553 C22.3295553,12.0492751 22.6920241,11.4139165 23.3051334,11.2496421 C23.9182427,11.0853676 24.5498205,11.4543847 24.7158019,12.0738649 C24.8817833,12.693345 24.5193146,13.3287037 23.9062053,13.4929781 Z M23.3850866,16.3536715 C23.9871137,16.0771793 24.6438706,16.4642683 24.6438706,17.0725512 C24.6438706,18.2338184 23.713465,19.4503841 21.9621134,19.9480701 C20.2107617,20.3904576 18.7877884,19.7821747 18.1857613,18.8421013 C17.8573829,18.2891169 18.1857613,17.6255356 18.8425182,17.5702371 C20.4296806,17.4596403 21.9621134,17.0725512 23.3850866,16.3536715 Z M17.0149539,15.3753591 C16.4018446,15.5396336 15.7702668,15.1706164 15.6042853,14.5511363 C15.4383039,13.9316561 15.8007727,13.2962975 16.413882,13.1320231 C17.0269912,12.9677486 17.6585691,13.3367658 17.8245505,13.9562459 C17.9905319,14.575726 17.6280632,15.2110847 17.0149539,15.3753591 Z" id="Combined-Shape" transform="translate(16.000000, 13.500000) rotate(14.000000) translate(-16.000000, -13.500000) "></path>
            </g>
        </g>
    </g>
</svg>