<?xml version="1.0" encoding="utf-8"?>
<!-- Generator: Adobe Illustrator 22.1.0, SVG Export Plug-In . SVG Version: 6.00 Build 0)  -->
<svg version="1.1" id="Layer_1" xmlns="http://www.w3.org/2000/svg" xmlns:xlink="http://www.w3.org/1999/xlink" x="0px" y="0px"
	 viewBox="0 0 27 22" style="enable-background:new 0 0 27 22;" xml:space="preserve">
<style type="text/css">
	.st0{fill:#999999;}
	.st1{fill:#8249D1;}
	.st2{fill:none;}
</style>
<path class="st1" d="M20.8,1.7c-2.3,0.7-4.6,1.6-7,1.3c-1.7-0.2-3.4-0.8-4.6,0.8C9,4,8.9,4.2,8.9,4.5C6.6,6,5,8.4,4.8,11.4
	c-0.3,4.7,3.4,8.8,8.3,9c4.8,0.2,8.9-3.4,9.2-8.2c0.1-2.4-0.8-4.7-2.3-6.3c0.6-0.6,1-1.2,1.3-1.8c0.3-0.5,0.7-1.3,0.7-2
	C21.9,1.3,21.7,1.4,20.8,1.7z M21.1,12.2c-0.2,4.1-3.8,7.3-8,7.1c-4.2-0.2-7.4-3.7-7.2-7.8c0.1-2.4,1.4-4.5,3.3-5.8
	C9.4,6,9.7,6.3,10,6.6c1.3,1,3.5,1.8,6.1,1.4c1.1-0.2,2.1-0.7,2.9-1.2C20.4,8.1,21.2,10.1,21.1,12.2z M15.8,14.5
	c-1.6,0.2-3.2,0.2-4.8-0.2c-0.6-0.2-1.2,0.4-1,1c0.2,1.1,1.5,2.1,3.3,2.2c1.8,0.1,3.2-0.8,3.6-1.9C17,15.1,16.4,14.5,15.8,14.5z
	 M18.4,10.9c0-0.6-0.5-1.2-1.1-1.2c-0.6,0-1.2,0.5-1.2,1.1s0.5,1.2,1.1,1.2C17.8,12,18.4,11.5,18.4,10.9z M11.1,10.5
	c0-0.6-0.5-1.2-1.1-1.2s-1.2,0.5-1.2,1.1c0,0.6,0.5,1.2,1.1,1.2C10.5,11.7,11.1,11.2,11.1,10.5z"/>
</svg>
