<svg xmlns="http://www.w3.org/2000/svg" viewBox="0 0 27 22">
  <path d="M22.6542604,3.78378597 C20.2462114,4.00431374 17.8381624,4.44536927 15.4861145,3.61839014 C13.8620815,3.06707073 12.2940496,2.12982772 10.7820188,3.45299432 C10.6140154,3.5632582 10.5020131,3.78378597 10.446012,4.05944568 C7.86995957,4.99668869 5.74191627,7.09170247 4.95790032,9.95856344 C3.72587525,14.5345146 6.46993109,19.2758616 11.1740268,20.4887643 C15.8221214,21.701667 20.6382194,19.0002019 21.8702444,14.3691188 C22.486257,12.0535772 22.094249,9.62777179 20.9182251,7.69815383 C21.5902387,7.2570983 22.1502501,6.70577888 22.5422581,6.20959141 C22.9342661,5.76853587 23.4942775,5.05182063 23.6062798,4.39023733 C23.7742832,3.61839014 23.6062798,3.72865403 22.6542604,3.78378597 Z M20.7502216,14.0934591 C19.6862,18.0629589 15.4861145,20.4336324 11.4540325,19.3861255 C7.42195046,18.3386186 5.01390146,14.203723 6.07792311,10.2342232 C6.69393564,7.9186816 8.42997097,6.09932752 10.5020131,5.2723484 C10.6140154,5.60314005 10.83802,5.98906364 11.1180257,6.31985529 C12.1820473,7.58788995 14.1980883,8.85592461 16.7741407,8.91105655 C17.8941635,8.96618849 18.9581852,8.69052878 19.8542034,8.30460519 C20.9742262,9.95856344 21.310233,12.0535772 20.7502216,14.0934591 Z M15.0941066,15.3063618 C13.4700735,15.1960979 11.9020416,14.8101743 10.446012,14.0934591 C9.88600059,13.8177994 9.15798578,14.203723 9.21398692,14.8653063 C9.21398692,15.9679451 10.2220074,17.2359798 11.9580428,17.7321672 C13.7500792,18.1732228 15.2061088,17.6219033 15.8221214,16.6295284 C16.1021271,16.078209 15.7101191,15.3614937 15.0941066,15.3063618 Z M18.4036043,12.265758 C18.571695,11.6384059 18.2072835,10.9956871 17.5896685,10.8302054 C16.9720536,10.6647238 16.3351134,11.0391437 16.1670228,11.6664959 C15.9989321,12.293848 16.3633436,12.9365668 16.9809586,13.1020485 C17.5985735,13.2675301 18.2355137,12.8931101 18.4036043,12.265758 Z M11.3403822,10.4141628 C11.5084728,9.78681066 11.1440614,9.14409187 10.5264464,8.97861019 C9.90883147,8.81312852 9.27189126,9.1875485 9.10380064,9.81490063 C8.93571002,10.4422528 9.30012149,11.0849715 9.91773644,11.2504532 C10.5353514,11.4159349 11.1722916,11.0415149 11.3403822,10.4141628 Z" transform="rotate(-12 14.164 11.778)"/>
</svg>
