<?xml version="1.0" encoding="UTF-8"?>
<svg width="18px" height="20px" viewBox="0 0 18 20" version="1.1" xmlns="http://www.w3.org/2000/svg" xmlns:xlink="http://www.w3.org/1999/xlink">
    <!-- Generator: sketchtool 52.3 (67297) - http://www.bohemiancoding.com/sketch -->
    <title>57741DA6-8ACA-4E94-A0DE-E239E35D8B4E</title>
    <desc>Created with sketchtool.</desc>
    <g id="Page-1" stroke="none" stroke-width="1" fill="none" fill-rule="evenodd">
        <g id="student---edit-personal-details" transform="translate(-528.000000, -320.000000)" fill="#8249D1" fill-rule="nonzero">
            <path d="M545.990653,322.005297 C543.582604,322.225824 541.174555,322.66688 538.822507,321.839901 C537.198474,321.288581 535.630442,320.351338 534.118411,321.674505 C533.950408,321.784769 533.838406,322.005297 533.782405,322.280956 C531.206352,323.218199 529.078309,325.313213 528.294293,328.180074 C527.062268,332.756025 529.806324,337.497372 534.510419,338.710275 C539.158514,339.923178 543.974612,337.221712 545.206637,332.590629 C545.82265,330.275088 545.430642,327.849282 544.254618,325.919664 C544.926631,325.478609 545.486643,324.927289 545.878651,324.431102 C546.270659,323.990046 546.83067,323.273331 546.942672,322.611748 C547.110676,321.839901 546.942672,321.950165 545.990653,322.005297 Z M544.086614,332.31497 C543.022593,336.284469 538.822507,338.655143 534.790425,337.607636 C530.758343,336.560129 528.350294,332.425233 529.414316,328.455734 C530.030328,326.140192 531.766364,324.320838 533.838406,323.493859 C533.950408,323.824651 534.174413,324.210574 534.454418,324.541366 C535.51844,325.8094 537.534481,327.077435 540.110533,327.132567 C541.230556,327.187699 542.294578,326.912039 543.190596,326.526116 C544.310619,328.180074 544.646626,330.275088 544.086614,332.31497 Z M538.430499,333.527872 C536.806466,333.417608 535.238434,333.031685 533.782405,332.31497 C533.222393,332.03931 532.494378,332.425233 532.550379,333.086817 C532.550379,334.189456 533.5584,335.45749 535.294435,335.953678 C537.086472,336.394733 538.542501,335.843414 539.158514,334.851039 C539.43852,334.29972 539.046512,333.583004 538.430499,333.527872 Z M541.739997,330.487269 C541.908088,329.859916 541.543676,329.217198 540.926061,329.051716 C540.308446,328.886234 539.671506,329.260654 539.503415,329.888006 C539.335325,330.515359 539.699736,331.158077 540.317351,331.323559 C540.934966,331.489041 541.571906,331.114621 541.739997,330.487269 Z M534.676775,328.635673 C534.844865,328.008321 534.480454,327.365602 533.862839,327.200121 C533.245224,327.034639 532.608284,327.409059 532.440193,328.036411 C532.272103,328.663763 532.636514,329.306482 533.254129,329.471964 C533.871744,329.637445 534.508684,329.263025 534.676775,328.635673 Z" id="Combined-Shape" transform="translate(537.500000, 330.000000) rotate(-12.000000) translate(-537.500000, -330.000000) "></path>
        </g>
    </g>
</svg>