<svg id="svg" version="1.1" width="400" height="305.88235294117646" viewBox="0 0 400 305.88235294117646" xmlns="http://www.w3.org/2000/svg" xmlns:xlink="http://www.w3.org/1999/xlink" ><g id="svgg"><path id="path0" d="M0.000 153.022 L 0.000 306.044 195.256 306.044 L 390.513 306.044 390.513 302.937 L 390.513 299.830 392.149 298.194 L 393.786 296.557 396.893 296.557 L 400.000 296.557 400.000 153.022 L 400.000 9.487 396.893 9.487 L 393.786 9.487 392.149 7.851 L 390.513 6.214 390.513 3.107 L 390.513 0.000 195.256 0.000 L 0.000 0.000 0.000 153.022 M302.831 43.747 C 307.939 44.978,311.529 48.001,311.550 51.090 C 311.552 51.331,311.853 51.849,312.221 52.239 L 312.888 52.950 312.321 54.707 C 311.918 55.958,311.689 57.965,311.526 61.668 C 311.096 71.451,309.212 81.813,307.321 84.795 C 306.571 85.979,303.960 88.141,303.281 88.141 C 302.705 88.141,299.942 91.349,299.767 92.221 C 299.468 93.718,298.089 97.961,297.585 98.936 C 297.178 99.723,297.195 100.060,297.758 102.349 C 298.102 103.746,298.597 106.388,298.858 108.221 C 299.481 112.603,299.529 112.694,301.499 113.315 C 307.330 115.153,308.993 118.509,310.643 131.759 C 311.364 137.552,311.310 137.423,313.858 139.335 C 319.853 143.832,321.737 154.286,320.802 177.872 C 320.121 195.053,318.693 199.651,313.182 202.408 L 311.598 203.201 311.132 205.426 C 310.875 206.650,310.577 208.753,310.469 210.099 C 309.585 221.095,306.960 226.394,301.731 227.734 C 299.702 228.254,299.321 228.766,298.822 231.642 C 297.953 236.651,296.128 239.540,293.103 240.695 C 291.090 241.464,288.401 244.227,287.609 246.341 C 286.393 249.585,283.996 251.403,279.283 252.655 C 276.673 253.349,276.694 253.329,275.913 255.853 C 274.771 259.538,272.476 261.571,268.484 262.431 C 262.483 263.725,260.358 264.628,259.614 266.204 C 256.874 272.004,250.300 274.279,233.818 275.129 C 230.367 275.307,225.960 275.590,224.024 275.758 C 222.089 275.927,217.789 276.192,214.470 276.349 C 211.151 276.506,207.868 276.804,207.174 277.012 C 206.164 277.314,205.789 277.312,205.289 277.000 C 204.439 276.468,195.664 275.549,189.135 275.306 C 168.779 274.551,163.278 272.977,160.762 267.191 C 160.356 266.257,159.915 265.287,159.780 265.034 C 159.620 264.732,158.291 264.350,155.897 263.918 C 146.821 262.279,139.250 257.528,139.250 253.473 C 139.250 252.921,135.459 250.271,133.905 249.736 C 129.994 248.390,128.029 246.357,126.715 242.295 C 126.508 241.655,125.732 240.209,124.991 239.082 C 124.250 237.954,123.643 236.962,123.643 236.877 C 123.642 236.791,122.964 236.411,122.135 236.031 C 117.965 234.117,114.464 227.959,113.387 220.641 C 112.743 216.266,112.091 214.706,110.654 214.106 C 103.227 211.003,101.619 203.348,101.613 171.079 C 101.607 142.005,103.316 133.755,110.150 129.844 C 110.922 129.403,111.597 129.011,111.650 128.974 C 111.983 128.741,113.350 123.980,113.709 121.806 C 114.550 116.698,115.711 114.232,118.018 112.652 C 120.426 111.003,123.573 107.489,124.241 105.704 C 124.878 104.001,126.693 100.919,127.269 100.563 C 127.441 100.458,127.922 99.626,128.338 98.716 C 129.368 96.469,131.297 94.461,133.471 93.374 C 134.466 92.877,135.879 91.944,136.612 91.300 C 137.344 90.657,138.823 89.692,139.898 89.157 C 141.332 88.443,142.161 87.769,143.013 86.622 C 143.652 85.763,144.838 84.583,145.649 84.000 C 146.750 83.209,147.259 82.573,147.661 81.486 C 147.957 80.685,148.643 79.204,149.185 78.194 C 149.728 77.184,150.497 75.463,150.894 74.369 C 151.872 71.677,153.968 69.566,156.653 68.566 C 157.725 68.167,159.694 67.184,161.029 66.382 C 162.364 65.579,163.558 64.879,163.683 64.826 C 163.808 64.772,164.272 64.109,164.714 63.351 C 168.405 57.036,177.133 54.918,194.950 56.013 C 200.278 56.341,210.572 57.354,213.925 57.881 C 217.678 58.471,228.810 58.713,231.829 58.270 C 233.344 58.047,236.305 57.657,238.409 57.401 C 240.513 57.145,244.300 56.668,246.825 56.340 C 249.350 56.012,254.239 55.523,257.689 55.254 C 261.140 54.985,265.891 54.567,268.248 54.327 C 270.604 54.087,273.497 53.797,274.675 53.683 C 277.710 53.391,278.057 53.198,278.951 51.309 C 280.991 46.995,285.749 44.768,295.333 43.641 C 300.108 43.079,300.057 43.078,302.831 43.747 M156.542 110.836 C 154.912 111.660,154.624 111.950,153.984 113.408 C 153.051 115.532,150.667 117.909,148.620 118.758 C 147.337 119.289,146.858 119.702,146.199 120.843 C 145.748 121.625,145.178 122.609,144.934 123.030 C 144.690 123.451,144.212 124.761,143.873 125.941 C 142.745 129.861,140.662 132.049,136.903 133.263 C 134.807 133.940,134.523 134.482,134.092 138.638 C 133.891 140.574,133.524 143.741,133.277 145.677 C 133.029 147.613,132.545 152.020,132.200 155.471 C 131.855 158.921,131.354 163.741,131.086 166.182 C 130.553 171.048,130.849 179.265,131.764 185.004 C 132.228 187.916,132.831 193.177,133.618 201.178 C 134.236 207.457,134.603 208.365,136.838 209.140 C 140.302 210.342,143.841 214.448,143.841 217.266 C 143.841 217.408,144.314 218.309,144.892 219.270 C 145.471 220.230,146.186 221.590,146.482 222.291 C 146.879 223.232,147.498 223.886,148.849 224.793 C 150.001 225.567,151.124 226.674,151.885 227.789 C 152.678 228.950,153.527 229.775,154.358 230.192 C 155.054 230.541,156.339 231.374,157.214 232.041 C 158.089 232.709,159.748 233.707,160.900 234.260 C 163.396 235.456,165.332 237.488,166.110 239.728 C 166.838 241.825,169.120 242.952,173.483 243.370 C 175.106 243.526,177.674 243.936,179.189 244.280 C 180.704 244.625,183.045 245.036,184.392 245.193 C 190.553 245.912,194.882 248.521,195.837 252.090 C 196.358 254.038,212.330 254.898,219.992 253.391 L 221.895 253.017 221.701 251.910 C 221.103 248.495,220.387 248.247,210.099 247.894 C 199.277 247.523,198.323 247.138,197.829 242.938 L 197.629 241.237 195.448 240.897 C 194.248 240.710,191.959 240.406,190.360 240.221 C 178.373 238.838,174.851 236.983,173.120 231.144 C 172.390 228.684,171.048 227.228,168.817 226.476 C 165.819 225.465,164.279 224.134,162.916 221.377 L 161.744 219.007 161.475 212.521 C 160.907 198.847,164.190 196.089,181.331 195.843 C 193.730 195.664,242.105 196.449,243.458 196.851 C 249.712 198.707,251.342 202.162,252.056 215.069 C 252.352 220.426,251.237 225.624,249.174 228.506 C 248.709 229.155,248.073 230.375,247.760 231.217 C 247.015 233.220,244.840 235.391,242.846 236.121 C 242.005 236.430,240.946 236.936,240.495 237.246 C 238.968 238.293,235.143 239.369,231.523 239.768 C 230.513 239.879,228.189 240.261,226.359 240.617 L 223.031 241.264 223.202 242.920 C 223.593 246.710,227.087 248.174,231.133 246.245 C 232.098 245.785,234.232 245.147,235.877 244.827 C 243.430 243.358,247.347 242.680,249.994 242.386 C 253.635 241.981,253.865 241.844,254.481 239.710 C 255.849 234.968,258.494 232.710,263.691 231.845 C 265.467 231.550,266.959 229.919,267.628 227.544 C 268.689 223.775,270.958 221.468,274.645 220.411 C 276.979 219.742,278.016 218.447,278.294 215.854 C 278.937 209.852,282.505 203.508,286.812 200.707 C 289.091 199.226,289.710 196.396,290.121 185.584 C 290.999 162.469,289.990 142.215,287.901 141.057 C 286.382 140.214,284.556 138.608,283.676 137.341 C 283.102 136.514,282.185 135.316,281.640 134.679 C 279.841 132.577,279.185 130.663,278.013 124.101 C 277.953 123.764,277.591 123.135,277.208 122.702 L 276.511 121.916 270.237 122.264 C 262.693 122.683,262.065 122.879,260.901 125.176 C 259.125 128.680,255.851 130.787,250.497 131.870 C 244.706 133.042,242.588 133.179,227.697 133.343 C 196.608 133.685,189.018 132.225,185.566 125.235 C 184.582 123.243,183.980 122.958,179.301 122.272 C 171.275 121.095,165.195 117.719,163.429 113.457 C 162.806 111.954,162.556 111.698,160.864 110.831 C 158.621 109.680,158.826 109.680,156.542 110.836 M175.842 137.725 C 178.750 138.469,180.623 139.528,181.618 140.993 C 182.033 141.603,183.145 142.708,184.089 143.450 C 186.859 145.623,188.296 148.530,189.597 154.589 C 190.821 160.292,189.239 163.945,184.522 166.305 C 183.341 166.896,181.726 167.953,180.934 168.654 C 180.143 169.354,179.213 170.058,178.869 170.218 C 178.524 170.378,177.921 171.185,177.528 172.013 C 175.949 175.339,171.707 178.148,169.275 177.479 C 165.502 176.440,162.222 174.406,160.537 172.061 C 159.566 170.709,159.337 170.568,157.352 170.102 C 149.669 168.299,147.862 163.264,149.527 148.296 C 150.362 140.795,153.728 138.239,164.040 137.278 C 169.548 136.765,172.529 136.878,175.842 137.725 M255.853 138.171 C 261.538 139.287,266.245 141.925,268.868 145.466 C 269.515 146.340,270.425 147.467,270.889 147.972 C 277.360 155.003,274.207 171.554,265.419 176.690 C 256.124 182.123,245.124 180.998,241.680 174.261 C 241.212 173.348,240.134 172.238,236.618 169.054 C 233.287 166.037,231.556 160.600,232.612 156.471 C 233.838 151.678,235.406 149.552,238.914 147.925 C 240.962 146.976,241.133 146.820,241.588 145.486 C 243.522 139.809,249.247 136.874,255.853 138.171 " stroke="none" fill="#fbfbfc" fill-rule="evenodd"></path><path id="path1" d="M298.467 52.485 C 297.919 52.723,297.024 53.253,296.478 53.663 C 293.330 56.027,286.474 58.302,278.806 59.526 C 267.817 61.280,259.898 63.410,256.430 65.544 C 248.682 70.311,225.914 71.823,202.449 69.129 C 199.420 68.781,196.854 68.443,196.748 68.377 C 196.641 68.311,193.378 68.054,189.496 67.805 L 182.439 67.354 180.251 68.098 C 179.047 68.508,176.319 69.199,174.188 69.634 C 171.042 70.276,169.997 70.631,168.630 71.520 C 165.840 73.337,162.944 75.828,162.047 77.183 C 161.582 77.886,160.353 79.365,159.316 80.470 C 156.818 83.132,154.972 85.901,153.777 88.778 C 152.220 92.525,151.546 93.215,148.412 94.265 C 145.096 95.376,140.943 98.947,140.604 100.977 C 140.078 104.131,139.517 104.764,136.790 105.282 C 133.641 105.879,130.282 110.206,129.948 114.097 C 129.583 118.336,128.081 119.960,124.519 119.968 C 123.148 119.971,120.915 122.817,120.438 125.172 C 120.319 125.761,119.680 128.429,119.018 131.101 L 117.815 135.960 118.100 140.015 C 118.470 145.257,118.827 145.804,122.146 146.197 L 123.587 146.368 124.807 143.804 C 126.136 141.012,127.924 135.608,127.931 134.366 C 127.957 129.179,131.451 122.187,134.302 121.617 C 136.003 121.277,141.147 113.659,141.898 110.368 C 142.457 107.917,143.142 107.255,145.687 106.710 C 146.926 106.445,149.652 105.296,152.973 103.640 C 159.264 100.504,158.427 100.586,162.463 102.712 C 172.985 108.256,172.762 108.109,176.323 111.888 C 178.438 114.131,181.625 115.798,185.310 116.586 C 191.831 117.981,201.917 121.312,204.841 123.038 C 205.907 123.666,207.767 124.122,213.619 125.189 C 217.181 125.838,229.382 126.043,232.196 125.501 C 233.004 125.346,235.318 124.914,237.337 124.543 C 240.394 123.981,241.324 123.672,242.882 122.705 C 246.836 120.249,258.280 116.596,266.327 115.222 C 267.888 114.955,270.847 114.394,272.901 113.975 L 276.636 113.213 278.525 114.167 C 281.608 115.723,285.539 120.624,285.539 122.910 C 285.539 124.311,288.021 126.931,289.661 127.260 C 292.907 127.912,293.616 128.908,294.274 133.741 C 294.991 139.007,297.160 150.650,298.236 155.011 C 298.817 157.368,299.445 160.948,299.632 162.967 C 299.819 164.986,300.018 166.684,300.074 166.740 C 300.332 166.999,301.777 163.963,302.379 161.897 C 302.747 160.635,303.364 158.776,303.750 157.766 C 306.671 150.124,305.453 135.257,301.252 127.263 C 300.378 125.599,299.970 125.134,299.145 124.862 C 295.965 123.812,293.601 120.424,292.742 115.685 C 292.483 114.254,292.130 112.482,291.957 111.748 C 291.454 109.605,289.171 105.302,287.729 103.777 C 284.651 100.526,284.649 100.398,287.605 97.211 C 290.095 94.527,292.160 91.258,293.384 88.058 C 295.078 83.634,296.300 81.635,298.876 79.075 L 301.378 76.589 302.936 71.730 C 303.793 69.057,304.609 66.397,304.749 65.818 C 305.270 63.655,302.624 54.518,300.910 52.563 C 300.349 51.923,299.800 51.906,298.467 52.485 M167.865 144.112 C 161.043 146.480,159.602 148.029,157.435 155.318 C 155.970 160.247,156.480 160.845,164.346 163.412 C 167.460 164.428,170.189 165.260,170.412 165.262 C 171.285 165.267,174.787 162.400,176.692 160.119 L 177.723 158.886 176.702 153.735 C 176.141 150.902,175.679 148.295,175.675 147.940 C 175.667 146.979,171.293 143.083,170.405 143.246 C 170.355 143.255,169.212 143.645,167.865 144.112 M111.105 149.273 C 107.432 161.546,107.614 184.608,111.462 194.440 C 112.063 195.975,115.041 195.016,115.835 193.032 C 117.384 189.159,117.607 151.873,116.098 148.956 C 114.787 146.420,111.904 146.604,111.105 149.273 M250.764 150.474 C 246.603 155.121,243.618 158.935,243.880 159.271 C 244.765 160.409,248.658 165.830,250.162 168.018 C 251.821 170.431,252.649 171.385,253.086 171.385 C 253.183 171.385,254.913 169.766,256.930 167.787 C 258.947 165.808,261.562 163.472,262.742 162.597 C 266.778 159.602,266.811 158.312,262.922 155.703 C 259.883 153.665,257.366 151.765,255.041 149.754 C 252.747 147.771,253.263 147.684,250.764 150.474 M299.921 174.009 C 299.904 175.668,298.835 182.955,298.233 185.505 C 297.811 187.296,296.979 191.634,296.386 195.145 C 295.792 198.656,295.116 202.493,294.882 203.672 C 294.649 204.850,294.370 206.572,294.262 207.498 C 293.788 211.586,292.841 212.939,289.945 213.670 C 287.601 214.262,286.108 216.078,285.097 219.569 C 283.867 223.815,282.594 225.624,277.419 230.482 C 276.415 231.425,274.789 233.114,273.806 234.236 C 271.862 236.452,269.332 238.389,266.334 239.953 C 264.545 240.887,264.350 241.096,263.359 243.156 C 261.779 246.441,260.209 247.438,254.955 248.490 C 251.725 249.137,247.682 250.714,245.184 252.301 L 243.850 253.149 244.063 255.496 C 244.354 258.716,244.387 258.739,248.960 258.868 C 252.169 258.959,253.055 258.877,254.687 258.342 C 255.749 257.993,258.492 257.175,260.783 256.524 C 265.940 255.057,267.271 254.157,267.778 251.790 C 268.482 248.510,269.721 247.226,272.903 246.480 C 277.375 245.432,277.327 245.454,279.263 243.505 C 281.025 241.731,281.156 241.498,281.522 239.480 C 282.130 236.124,283.315 234.915,286.764 234.128 C 289.887 233.416,291.637 231.102,292.542 226.485 C 293.588 221.154,295.705 217.950,299.126 216.520 C 303.368 214.748,306.877 195.673,304.727 186.075 C 303.887 182.328,302.696 178.120,302.050 176.619 C 301.453 175.231,299.927 173.361,299.921 174.009 M121.536 196.505 C 117.706 197.257,116.496 201.879,118.258 209.028 C 118.693 210.796,119.209 213.412,119.403 214.843 C 119.965 218.982,122.289 222.842,124.465 223.250 C 127.436 223.807,128.539 225.006,128.977 228.156 C 129.361 230.912,133.788 236.875,136.428 238.191 C 137.507 238.729,138.014 239.238,138.560 240.333 C 139.774 242.768,146.228 247.967,148.483 248.327 C 150.757 248.690,151.777 249.753,152.224 252.226 C 152.618 254.403,157.260 257.254,160.889 257.549 C 164.066 257.807,168.596 258.567,169.344 258.968 C 169.676 259.145,170.837 259.401,171.926 259.536 C 174.420 259.845,174.553 259.992,174.701 262.608 C 174.843 265.131,174.741 265.034,179.033 266.731 C 191.243 271.557,234.416 270.719,242.692 265.494 L 243.991 264.674 243.780 262.528 C 243.421 258.889,244.376 259.131,231.982 259.533 C 212.615 260.160,205.761 260.228,197.399 259.874 C 192.770 259.678,186.128 259.415,182.640 259.289 C 175.019 259.014,175.309 259.160,175.069 255.471 L 174.904 252.946 172.609 251.828 C 171.347 251.214,168.179 249.997,165.570 249.125 C 162.961 248.253,160.000 247.264,158.990 246.926 C 154.937 245.574,154.456 245.151,153.970 242.519 C 153.519 240.078,149.005 236.254,145.652 235.472 C 142.665 234.775,141.637 233.730,141.230 230.976 C 140.763 227.813,136.277 221.902,133.887 221.300 C 132.660 220.991,130.987 219.540,130.987 218.785 C 130.987 218.623,130.589 217.635,130.103 216.590 C 129.069 214.368,128.159 211.199,127.451 207.353 C 126.696 203.249,123.990 196.131,123.214 196.208 C 123.029 196.226,122.274 196.360,121.536 196.505 M179.495 202.927 C 174.591 204.535,172.758 205.617,172.785 206.886 C 172.897 212.038,173.365 217.108,173.802 217.889 C 174.415 218.987,181.531 227.454,183.123 228.980 C 188.847 234.467,206.576 237.052,221.576 234.586 C 224.017 234.185,226.800 233.764,227.761 233.651 C 230.676 233.307,232.788 231.848,236.772 227.428 C 237.588 226.523,239.032 225.254,239.982 224.609 C 242.963 222.582,245.913 218.549,245.551 216.994 C 244.315 211.669,241.762 205.766,240.597 205.539 C 235.762 204.594,229.343 204.356,222.103 204.854 C 208.957 205.758,205.460 205.579,190.360 203.224 C 187.246 202.739,184.147 202.270,183.474 202.182 C 182.605 202.069,181.449 202.286,179.495 202.927 " stroke="none" fill="#915cd7" fill-rule="evenodd"></path><path id="path2" d="M298.852 46.726 C 294.220 47.760,289.055 49.984,286.797 51.917 C 284.891 53.548,279.112 55.644,275.134 56.147 C 270.390 56.747,259.088 58.575,257.077 59.068 C 249.315 60.969,246.834 61.682,243.795 62.885 C 234.295 66.647,218.436 66.908,205.968 63.509 C 197.877 61.303,195.631 60.910,188.896 60.525 C 181.315 60.091,178.880 60.643,174.065 63.892 C 173.348 64.375,171.867 65.089,170.773 65.478 C 161.216 68.877,152.831 77.232,149.204 86.971 C 148.535 88.768,147.686 89.570,145.520 90.450 C 141.613 92.038,137.404 95.566,135.901 98.512 C 135.511 99.277,134.736 100.048,133.741 100.660 C 130.322 102.764,128.035 105.579,126.189 109.956 C 124.870 113.083,124.185 114.021,122.646 114.806 C 119.493 116.415,117.328 119.832,115.691 125.784 C 113.628 133.280,112.258 136.792,111.062 137.647 C 106.305 141.046,104.314 150.920,104.323 171.079 C 104.332 191.678,106.225 201.785,111.081 207.174 C 112.539 208.792,114.078 212.319,115.563 217.445 C 117.330 223.547,119.265 226.720,122.306 228.502 C 123.407 229.148,123.841 229.680,124.607 231.328 C 127.793 238.180,134.588 245.701,142.560 251.199 C 143.851 252.089,146.228 254.104,147.841 255.676 C 151.128 258.879,153.319 260.129,158.000 261.475 C 161.656 262.526,164.450 263.961,165.976 265.571 C 170.743 270.602,175.150 271.756,195.715 273.359 C 209.488 274.433,227.422 273.721,240.052 271.599 C 244.653 270.826,249.531 268.421,251.845 265.786 C 252.982 264.492,255.350 263.406,262.276 261.004 C 268.605 258.809,270.335 257.634,272.514 254.048 C 273.673 252.139,275.306 250.833,277.888 249.748 C 281.308 248.311,283.640 246.146,285.151 243.009 C 286.400 240.412,287.223 239.493,289.281 238.397 C 292.834 236.503,294.559 234.436,296.249 230.049 C 297.538 226.700,298.685 225.050,301.531 222.450 C 305.185 219.113,306.529 216.026,308.177 207.192 C 309.160 201.916,310.515 197.534,312.015 194.780 C 315.321 188.705,316.882 180.482,316.802 169.549 C 316.726 159.258,315.827 154.712,312.640 148.494 C 310.681 144.674,309.898 142.175,308.500 135.295 C 306.382 124.865,305.396 122.575,301.289 118.546 C 297.998 115.317,297.087 113.762,296.051 109.603 C 295.439 107.148,294.817 105.429,292.814 100.661 C 292.527 99.979,292.609 99.682,293.407 98.519 C 294.833 96.438,295.791 94.378,296.883 91.043 C 297.815 88.197,299.649 84.774,300.242 84.774 C 300.978 84.774,304.227 81.227,305.214 79.346 C 307.898 74.233,309.193 65.691,308.475 57.842 C 307.933 51.916,306.892 50.137,302.564 47.736 C 300.419 46.547,300.075 46.453,298.852 46.726 M300.910 52.563 C 302.624 54.518,305.270 63.655,304.749 65.818 C 304.609 66.397,303.793 69.057,302.936 71.730 L 301.378 76.589 298.876 79.075 C 296.300 81.635,295.078 83.634,293.384 88.058 C 292.160 91.258,290.095 94.527,287.605 97.211 C 284.649 100.398,284.651 100.526,287.729 103.777 C 289.171 105.302,291.454 109.605,291.957 111.748 C 292.130 112.482,292.483 114.254,292.742 115.685 C 293.601 120.424,295.965 123.812,299.145 124.862 C 299.970 125.134,300.378 125.599,301.252 127.263 C 305.453 135.257,306.671 150.124,303.750 157.766 C 303.364 158.776,302.747 160.635,302.379 161.897 C 301.777 163.963,300.332 166.999,300.074 166.740 C 300.018 166.684,299.819 164.986,299.632 162.967 C 299.445 160.948,298.817 157.368,298.236 155.011 C 297.160 150.650,294.991 139.007,294.274 133.741 C 293.616 128.908,292.907 127.912,289.661 127.260 C 288.021 126.931,285.539 124.311,285.539 122.910 C 285.539 120.624,281.608 115.723,278.525 114.167 L 276.636 113.213 272.901 113.975 C 270.847 114.394,267.888 114.955,266.327 115.222 C 258.280 116.596,246.836 120.249,242.882 122.705 C 241.324 123.672,240.394 123.981,237.337 124.543 C 235.318 124.914,233.004 125.346,232.196 125.501 C 229.382 126.043,217.181 125.838,213.619 125.189 C 207.767 124.122,205.907 123.666,204.841 123.038 C 201.917 121.312,191.831 117.981,185.310 116.586 C 181.625 115.798,178.438 114.131,176.323 111.888 C 172.762 108.109,172.985 108.256,162.463 102.712 C 158.427 100.586,159.264 100.504,152.973 103.640 C 149.652 105.296,146.926 106.445,145.687 106.710 C 143.142 107.255,142.457 107.917,141.898 110.368 C 141.147 113.659,136.003 121.277,134.302 121.617 C 131.451 122.187,127.957 129.179,127.931 134.366 C 127.924 135.608,126.136 141.012,124.807 143.804 L 123.587 146.368 122.146 146.197 C 118.827 145.804,118.470 145.257,118.100 140.015 L 117.815 135.960 119.018 131.101 C 119.680 128.429,120.319 125.761,120.438 125.172 C 120.915 122.817,123.148 119.971,124.519 119.968 C 128.081 119.960,129.583 118.336,129.948 114.097 C 130.282 110.206,133.641 105.879,136.790 105.282 C 139.517 104.764,140.078 104.131,140.604 100.977 C 140.943 98.947,145.096 95.376,148.412 94.265 C 151.546 93.215,152.220 92.525,153.777 88.778 C 154.972 85.901,156.818 83.132,159.316 80.470 C 160.353 79.365,161.582 77.886,162.047 77.183 C 162.944 75.828,165.840 73.337,168.630 71.520 C 169.997 70.631,171.042 70.276,174.188 69.634 C 176.319 69.199,179.047 68.508,180.251 68.098 L 182.439 67.354 189.496 67.805 C 193.378 68.054,196.641 68.311,196.748 68.377 C 196.854 68.443,199.420 68.781,202.449 69.129 C 225.914 71.823,248.682 70.311,256.430 65.544 C 259.898 63.410,267.817 61.280,278.806 59.526 C 286.474 58.302,293.330 56.027,296.478 53.663 C 298.563 52.097,300.155 51.702,300.910 52.563 M164.290 109.165 C 169.064 111.654,169.517 111.967,171.266 113.985 C 173.580 116.656,176.006 118.140,180.107 119.392 C 188.565 121.975,191.437 123.134,192.961 124.578 C 197.891 129.251,215.987 131.726,234.182 130.216 C 243.587 129.435,249.319 127.703,252.900 124.559 C 255.604 122.185,262.534 120.045,270.237 119.205 L 276.511 118.520 278.256 120.215 C 280.012 121.921,280.311 122.408,282.308 126.812 C 283.637 129.744,284.809 131.267,286.959 132.854 C 290.066 135.150,291.608 140.477,293.193 154.399 C 295.453 174.236,292.612 203.800,288.106 207.345 C 284.460 210.214,282.697 212.634,281.390 216.563 C 280.411 219.505,277.787 223.195,275.766 224.471 C 274.303 225.394,272.545 227.165,271.568 228.699 C 270.049 231.084,266.422 234.332,263.810 235.647 C 261.738 236.690,260.031 238.198,258.767 240.102 C 256.818 243.039,254.608 244.319,249.377 245.542 C 243.913 246.819,236.762 249.905,234.025 252.167 C 229.687 255.751,213.119 257.469,198.317 255.868 C 189.642 254.930,187.054 254.144,182.402 251.033 C 178.733 248.579,176.633 247.622,172.505 246.524 C 166.703 244.980,160.904 242.089,159.038 239.809 C 155.755 235.800,153.148 233.578,149.867 231.995 C 146.482 230.363,146.003 229.970,145.369 228.309 C 143.588 223.645,140.735 219.420,136.405 215.036 C 133.588 212.184,131.948 208.579,130.958 203.060 C 130.405 199.978,129.110 194.734,127.557 189.288 C 127.221 188.110,126.469 186.113,125.886 184.851 C 123.398 179.462,122.751 171.205,124.376 165.583 C 124.982 163.486,125.478 161.606,125.478 161.405 C 125.478 161.204,126.011 159.332,126.663 157.244 C 127.314 155.156,128.153 152.009,128.527 150.251 C 128.900 148.493,129.456 146.222,129.761 145.205 C 130.288 143.450,131.321 138.684,131.748 136.037 C 131.857 135.363,132.424 133.836,133.009 132.643 C 134.045 130.528,134.804 129.614,137.212 127.582 C 138.452 126.536,142.386 120.744,145.251 115.747 C 147.469 111.879,147.204 112.104,153.035 109.116 C 159.172 105.970,158.153 105.966,164.290 109.165 M167.406 139.851 C 157.147 141.768,154.320 143.911,153.062 150.727 C 151.654 158.359,151.632 158.843,152.607 160.834 C 154.732 165.174,156.681 166.461,164.658 168.793 L 170.598 170.530 172.291 169.700 C 176.139 167.812,179.482 164.971,181.594 161.790 C 182.170 160.923,182.932 159.952,183.287 159.631 C 184.102 158.895,184.095 158.739,183.142 156.695 C 182.711 155.769,181.944 153.221,181.439 151.033 C 180.090 145.195,178.535 142.851,174.733 140.924 C 173.508 140.304,170.314 139.117,170.314 139.282 C 170.314 139.296,169.005 139.552,167.406 139.851 M250.776 142.700 C 248.417 144.196,247.965 144.629,244.796 148.432 C 243.183 150.367,241.044 152.793,240.043 153.822 C 239.041 154.850,237.828 156.443,237.348 157.362 L 236.473 159.032 237.364 160.678 C 237.855 161.584,238.954 163.089,239.808 164.024 C 241.268 165.622,243.519 168.592,245.602 171.667 C 250.242 178.516,255.240 178.102,263.745 170.163 C 273.114 161.416,273.250 155.989,264.269 149.193 C 263.091 148.302,261.301 146.794,260.291 145.843 C 258.417 144.079,254.205 141.693,252.987 141.705 C 252.628 141.709,251.633 142.157,250.776 142.700 M171.459 143.726 C 172.955 144.500,175.669 147.212,175.675 147.940 C 175.679 148.295,176.141 150.902,176.702 153.735 L 177.723 158.886 176.692 160.119 C 174.787 162.400,171.285 165.267,170.412 165.262 C 170.189 165.260,167.460 164.428,164.346 163.412 C 156.480 160.845,155.970 160.247,157.435 155.318 C 159.114 149.669,160.569 147.376,163.351 145.991 C 164.910 145.214,169.581 143.397,170.405 143.246 C 170.456 143.236,170.930 143.453,171.459 143.726 M114.603 147.642 C 117.019 148.652,117.293 150.940,117.056 168.171 C 116.707 193.554,116.573 194.411,112.852 195.109 C 111.691 195.327,111.506 195.073,110.792 192.276 C 107.502 179.392,107.637 160.859,111.105 149.273 C 111.797 146.962,112.354 146.703,114.603 147.642 M255.041 149.754 C 257.366 151.765,259.883 153.665,262.922 155.703 C 266.811 158.312,266.778 159.602,262.742 162.597 C 261.562 163.472,258.947 165.808,256.930 167.787 C 254.913 169.766,253.183 171.385,253.086 171.385 C 252.649 171.385,251.821 170.431,250.162 168.018 C 248.658 165.830,244.765 160.409,243.880 159.271 C 243.565 158.867,252.368 148.125,253.013 148.125 C 253.092 148.125,254.005 148.858,255.041 149.754 M302.050 176.619 C 302.696 178.120,303.887 182.328,304.727 186.075 C 306.877 195.673,303.368 214.748,299.126 216.520 C 295.705 217.950,293.588 221.154,292.542 226.485 C 291.637 231.102,289.887 233.416,286.764 234.128 C 283.315 234.915,282.130 236.124,281.522 239.480 C 281.156 241.498,281.025 241.731,279.263 243.505 C 277.327 245.454,277.375 245.432,272.903 246.480 C 269.721 247.226,268.482 248.510,267.778 251.790 C 267.271 254.157,265.940 255.057,260.783 256.524 C 258.492 257.175,255.749 257.993,254.687 258.342 C 253.055 258.877,252.169 258.959,248.960 258.868 C 244.387 258.739,244.354 258.716,244.063 255.496 L 243.850 253.149 245.184 252.301 C 247.682 250.714,251.725 249.137,254.955 248.490 C 260.209 247.438,261.779 246.441,263.359 243.156 C 264.350 241.096,264.545 240.887,266.334 239.953 C 269.332 238.389,271.862 236.452,273.806 234.236 C 274.789 233.114,276.415 231.425,277.419 230.482 C 282.594 225.624,283.867 223.815,285.097 219.569 C 286.108 216.078,287.601 214.262,289.945 213.670 C 292.841 212.939,293.788 211.586,294.262 207.498 C 294.370 206.572,294.649 204.850,294.882 203.672 C 295.116 202.493,295.792 198.656,296.386 195.145 C 296.979 191.634,297.811 187.296,298.233 185.505 C 298.835 182.955,299.904 175.668,299.921 174.009 C 299.927 173.361,301.453 175.231,302.050 176.619 M124.488 198.240 C 125.969 201.509,126.905 204.388,127.451 207.353 C 128.159 211.199,129.069 214.368,130.103 216.590 C 130.589 217.635,130.987 218.623,130.987 218.785 C 130.987 219.540,132.660 220.991,133.887 221.300 C 136.277 221.902,140.763 227.813,141.230 230.976 C 141.637 233.730,142.665 234.775,145.652 235.472 C 149.005 236.254,153.519 240.078,153.970 242.519 C 154.456 245.151,154.937 245.574,158.990 246.926 C 160.000 247.264,162.961 248.253,165.570 249.125 C 168.179 249.997,171.347 251.214,172.609 251.828 L 174.904 252.946 175.069 255.471 C 175.309 259.160,175.019 259.014,182.640 259.289 C 186.128 259.415,192.770 259.678,197.399 259.874 C 205.761 260.228,212.615 260.160,231.982 259.533 C 244.376 259.131,243.421 258.889,243.780 262.528 L 243.991 264.674 242.692 265.494 C 234.416 270.719,191.243 271.557,179.033 266.731 C 174.741 265.034,174.843 265.131,174.701 262.608 C 174.553 259.992,174.420 259.845,171.926 259.536 C 170.837 259.401,169.676 259.145,169.344 258.968 C 168.596 258.567,164.066 257.807,160.889 257.549 C 157.260 257.254,152.618 254.403,152.224 252.226 C 151.777 249.753,150.757 248.690,148.483 248.327 C 146.228 247.967,139.774 242.768,138.560 240.333 C 138.014 239.238,137.507 238.729,136.428 238.191 C 133.788 236.875,129.361 230.912,128.977 228.156 C 128.539 225.006,127.436 223.807,124.465 223.250 C 122.289 222.842,119.965 218.982,119.403 214.843 C 119.209 213.412,118.693 210.796,118.258 209.028 C 116.245 200.859,117.836 196.743,123.214 196.208 C 123.400 196.190,123.973 197.104,124.488 198.240 M179.145 198.644 C 171.415 199.978,168.960 201.126,166.249 204.677 C 165.487 205.676,165.484 205.706,165.699 210.033 C 166.108 218.260,166.323 218.904,169.491 221.412 C 170.800 222.448,175.947 228.319,177.417 230.451 C 180.421 234.812,184.632 236.636,195.846 238.433 C 197.963 238.772,201.140 239.322,202.907 239.654 C 208.776 240.759,219.262 239.806,230.226 237.171 C 234.781 236.076,238.443 233.751,240.121 230.889 C 240.647 229.991,241.436 229.247,242.519 228.627 C 247.715 225.655,250.197 220.104,249.124 213.859 C 246.766 200.139,244.108 198.678,223.106 199.562 C 215.010 199.902,206.868 199.894,201.219 199.541 C 196.296 199.232,184.875 198.388,183.168 198.207 C 182.663 198.153,180.852 198.350,179.145 198.644 M190.360 203.224 C 205.460 205.579,208.957 205.758,222.103 204.854 C 229.343 204.356,235.762 204.594,240.597 205.539 C 241.762 205.766,244.315 211.669,245.551 216.994 C 245.913 218.549,242.963 222.582,239.982 224.609 C 239.032 225.254,237.588 226.523,236.772 227.428 C 232.788 231.848,230.676 233.307,227.761 233.651 C 226.800 233.764,224.017 234.185,221.576 234.586 C 206.576 237.052,188.847 234.467,183.123 228.980 C 181.531 227.454,174.415 218.987,173.802 217.889 C 173.365 217.108,172.897 212.038,172.785 206.886 C 172.749 205.201,180.490 201.795,183.474 202.182 C 184.147 202.270,187.246 202.739,190.360 203.224 " stroke="none" fill="#d4c2ef" fill-rule="evenodd"></path><path id="path3" d="M298.240 45.642 C 291.306 46.905,286.777 48.867,283.780 51.905 C 282.212 53.493,278.380 54.863,274.024 55.390 C 260.274 57.056,249.862 58.834,244.529 60.427 C 243.099 60.854,239.862 61.743,237.337 62.403 C 234.813 63.062,231.989 63.890,231.064 64.242 C 229.466 64.851,229.132 64.867,224.484 64.568 C 217.294 64.106,217.391 64.119,214.139 63.094 C 204.195 59.957,185.358 57.721,180.413 59.089 C 176.423 60.194,172.051 62.343,170.551 63.938 C 170.252 64.256,168.975 64.969,167.712 65.524 C 164.955 66.735,161.996 68.477,159.911 70.117 C 159.068 70.781,157.689 71.847,156.848 72.487 C 154.294 74.428,150.236 80.948,148.437 85.998 C 147.557 88.472,147.231 88.796,144.759 89.659 C 141.817 90.686,139.533 92.188,137.522 94.417 C 135.635 96.508,132.579 99.553,129.763 102.148 C 127.703 104.046,126.296 106.318,125.173 109.560 C 124.159 112.489,123.957 112.763,122.234 113.524 C 119.015 114.949,116.733 118.174,115.402 123.183 C 113.267 131.215,112.067 134.057,109.798 136.453 C 104.593 141.950,103.361 148.597,103.381 171.079 C 103.401 194.447,105.102 203.781,110.258 208.826 C 112.387 210.910,113.641 213.594,114.941 218.850 C 116.342 224.510,117.353 226.161,121.856 230.138 C 122.810 230.981,123.854 232.442,125.006 234.546 C 125.954 236.277,127.446 238.614,128.322 239.739 C 129.199 240.863,130.386 242.448,130.960 243.260 C 131.534 244.072,132.674 245.206,133.493 245.781 C 134.312 246.355,136.011 247.678,137.268 248.722 C 138.525 249.765,140.208 251.063,141.008 251.606 C 141.809 252.149,143.497 253.644,144.759 254.927 C 149.015 259.254,151.518 260.750,156.792 262.120 C 161.004 263.215,162.983 264.302,164.582 266.401 C 166.142 268.448,168.902 270.319,171.583 271.147 C 176.292 272.601,180.235 273.115,194.032 274.073 C 197.819 274.335,202.020 274.671,203.366 274.819 C 206.248 275.135,215.456 274.780,227.238 273.900 C 244.896 272.580,248.262 271.655,253.395 266.710 C 255.604 264.582,257.530 263.645,264.426 261.348 C 270.043 259.477,271.823 258.156,273.686 254.476 C 274.702 252.469,275.569 251.702,277.612 250.999 C 282.274 249.395,286.761 244.966,286.764 241.963 C 286.765 241.390,288.095 240.041,288.906 239.790 C 292.789 238.592,295.419 235.712,296.972 230.956 C 298.025 227.734,299.351 225.745,301.268 224.513 C 305.529 221.774,307.289 218.142,308.789 208.996 C 309.843 202.566,311.051 198.794,312.606 197.073 C 320.174 188.696,320.488 154.314,313.081 145.121 C 311.280 142.886,310.383 140.276,309.252 133.975 C 307.343 123.336,305.633 119.510,301.605 116.862 C 299.110 115.221,297.895 113.252,297.147 109.635 C 296.528 106.642,295.591 103.485,294.719 101.450 L 294.137 100.092 295.480 97.559 C 296.218 96.166,297.310 93.412,297.906 91.439 C 299.226 87.067,299.380 86.809,301.301 85.721 C 306.975 82.510,309.983 72.953,309.625 59.274 L 309.459 52.901 308.440 51.196 C 306.988 48.763,300.973 44.665,299.829 45.329 C 299.797 45.348,299.082 45.488,298.240 45.642 M302.564 47.736 C 306.892 50.137,307.933 51.916,308.475 57.842 C 309.193 65.691,307.898 74.233,305.214 79.346 C 304.227 81.227,300.978 84.774,300.242 84.774 C 299.649 84.774,297.815 88.197,296.883 91.043 C 295.791 94.378,294.833 96.438,293.407 98.519 C 292.609 99.682,292.527 99.979,292.814 100.661 C 294.817 105.429,295.439 107.148,296.051 109.603 C 297.087 113.762,297.998 115.317,301.289 118.546 C 305.396 122.575,306.382 124.865,308.500 135.295 C 309.898 142.175,310.681 144.674,312.640 148.494 C 315.827 154.712,316.726 159.258,316.802 169.549 C 316.882 180.482,315.321 188.705,312.015 194.780 C 310.515 197.534,309.160 201.916,308.177 207.192 C 306.529 216.026,305.185 219.113,301.531 222.450 C 298.685 225.050,297.538 226.700,296.249 230.049 C 294.559 234.436,292.834 236.503,289.281 238.397 C 287.223 239.493,286.400 240.412,285.151 243.009 C 283.640 246.146,281.308 248.311,277.888 249.748 C 275.306 250.833,273.673 252.139,272.514 254.048 C 270.335 257.634,268.605 258.809,262.276 261.004 C 255.350 263.406,252.982 264.492,251.845 265.786 C 249.531 268.421,244.653 270.826,240.052 271.599 C 227.422 273.721,209.488 274.433,195.715 273.359 C 175.150 271.756,170.743 270.602,165.976 265.571 C 164.450 263.961,161.656 262.526,158.000 261.475 C 153.319 260.129,151.128 258.879,147.841 255.676 C 146.228 254.104,143.851 252.089,142.560 251.199 C 134.588 245.701,127.793 238.180,124.607 231.328 C 123.841 229.680,123.407 229.148,122.306 228.502 C 119.265 226.720,117.330 223.547,115.563 217.445 C 114.078 212.319,112.539 208.792,111.081 207.174 C 106.225 201.785,104.332 191.678,104.323 171.079 C 104.314 150.920,106.305 141.046,111.062 137.647 C 112.258 136.792,113.628 133.280,115.691 125.784 C 117.328 119.832,119.493 116.415,122.646 114.806 C 124.185 114.021,124.870 113.083,126.189 109.956 C 128.035 105.579,130.322 102.764,133.741 100.660 C 134.736 100.048,135.511 99.277,135.901 98.512 C 137.404 95.566,141.613 92.038,145.520 90.450 C 147.686 89.570,148.535 88.768,149.204 86.971 C 152.831 77.232,161.216 68.877,170.773 65.478 C 171.867 65.089,173.348 64.375,174.065 63.892 C 181.042 59.185,189.728 59.081,205.968 63.509 C 218.436 66.908,234.295 66.647,243.795 62.885 C 246.834 61.682,249.315 60.969,257.077 59.068 C 259.088 58.575,270.390 56.747,275.134 56.147 C 279.112 55.644,284.891 53.548,286.797 51.917 C 288.612 50.363,291.691 48.848,295.180 47.790 C 300.270 46.248,299.885 46.251,302.564 47.736 M153.035 109.116 C 147.204 112.104,147.469 111.879,145.251 115.747 C 142.386 120.744,138.452 126.536,137.212 127.582 C 134.804 129.614,134.045 130.528,133.009 132.643 C 132.424 133.836,131.857 135.363,131.748 136.037 C 131.321 138.684,130.288 143.450,129.761 145.205 C 129.456 146.222,128.900 148.493,128.527 150.251 C 128.153 152.009,127.314 155.156,126.663 157.244 C 126.011 159.332,125.478 161.204,125.478 161.405 C 125.478 161.606,124.982 163.486,124.376 165.583 C 122.751 171.205,123.398 179.462,125.886 184.851 C 126.469 186.113,127.221 188.110,127.557 189.288 C 129.110 194.734,130.405 199.978,130.958 203.060 C 131.948 208.579,133.588 212.184,136.405 215.036 C 140.735 219.420,143.588 223.645,145.369 228.309 C 146.003 229.970,146.482 230.363,149.867 231.995 C 153.148 233.578,155.755 235.800,159.038 239.809 C 160.904 242.089,166.703 244.980,172.505 246.524 C 176.633 247.622,178.733 248.579,182.402 251.033 C 187.054 254.144,189.642 254.930,198.317 255.868 C 213.119 257.469,229.687 255.751,234.025 252.167 C 236.762 249.905,243.913 246.819,249.377 245.542 C 254.608 244.319,256.818 243.039,258.767 240.102 C 260.031 238.198,261.738 236.690,263.810 235.647 C 266.422 234.332,270.049 231.084,271.568 228.699 C 272.545 227.165,274.303 225.394,275.766 224.471 C 277.787 223.195,280.411 219.505,281.390 216.563 C 282.697 212.634,284.460 210.214,288.106 207.345 C 292.612 203.800,295.453 174.236,293.193 154.399 C 291.608 140.477,290.066 135.150,286.959 132.854 C 284.809 131.267,283.637 129.744,282.308 126.812 C 280.311 122.408,280.012 121.921,278.256 120.215 L 276.511 118.520 270.237 119.205 C 262.534 120.045,255.604 122.185,252.900 124.559 C 249.319 127.703,243.587 129.435,234.182 130.216 C 215.987 131.726,197.891 129.251,192.961 124.578 C 191.437 123.134,188.565 121.975,180.107 119.392 C 176.006 118.140,173.580 116.656,171.266 113.985 C 169.517 111.967,169.064 111.654,164.290 109.165 C 158.153 105.966,159.172 105.970,153.035 109.116 M167.702 112.742 C 168.129 113.251,168.822 113.978,169.243 114.356 C 169.663 114.734,170.627 115.612,171.385 116.307 C 173.614 118.352,176.454 119.640,181.178 120.747 C 185.781 121.826,188.786 123.198,190.815 125.145 C 195.639 129.778,204.961 131.602,223.789 131.600 C 241.999 131.598,250.459 129.813,255.421 124.928 C 256.600 123.767,257.485 123.244,259.526 122.502 C 263.955 120.891,265.079 120.633,268.554 120.425 C 270.406 120.314,272.953 120.092,274.216 119.931 L 276.511 119.638 278.219 121.472 C 279.587 122.941,280.000 123.633,280.293 124.945 C 281.183 128.921,283.287 132.093,286.414 134.172 L 288.483 135.547 289.603 139.685 C 292.901 151.865,293.644 168.346,291.834 189.182 C 291.073 197.944,288.963 205.480,286.955 206.606 C 283.753 208.402,281.644 211.405,280.386 215.958 C 279.477 219.247,277.486 222.042,275.295 223.102 C 273.422 224.009,271.316 226.172,270.251 228.283 C 269.107 230.549,266.193 233.099,263.036 234.597 C 260.427 235.835,258.351 237.764,257.329 239.898 C 256.159 242.341,254.261 243.450,249.683 244.364 C 241.199 246.059,234.596 248.702,231.558 251.620 L 229.753 253.355 226.353 253.993 C 211.228 256.833,191.774 255.828,187.688 251.997 C 185.736 250.167,178.499 246.786,174.596 245.880 C 168.828 244.541,163.351 242.242,162.105 240.637 C 161.742 240.169,161.156 239.510,160.803 239.174 C 160.450 238.837,158.855 237.303,157.258 235.764 C 154.366 232.975,152.810 231.958,149.050 230.399 L 147.067 229.577 145.798 226.501 C 144.577 223.540,142.298 219.345,141.713 218.984 C 141.558 218.888,140.784 217.836,139.993 216.646 C 139.123 215.337,137.806 213.894,136.662 212.995 C 133.987 210.892,132.700 208.120,131.878 202.691 C 131.552 200.538,131.079 197.881,130.827 196.787 C 130.575 195.692,130.176 193.762,129.940 192.496 C 129.355 189.362,128.661 186.639,127.797 184.086 C 127.344 182.746,126.815 179.801,126.385 176.227 L 125.698 170.511 126.335 167.964 C 126.686 166.563,127.257 163.833,127.605 161.897 C 127.952 159.962,128.446 157.621,128.703 156.695 C 128.959 155.769,129.500 153.138,129.905 150.847 C 130.310 148.557,130.852 145.871,131.109 144.879 C 131.366 143.886,131.867 141.284,132.221 139.096 C 133.080 133.794,134.066 131.719,136.517 130.055 C 138.548 128.676,140.182 126.865,141.181 124.887 C 141.570 124.118,142.509 122.525,143.268 121.347 C 144.027 120.168,145.153 118.339,145.771 117.282 C 147.646 114.071,149.869 112.149,154.552 109.690 L 158.684 107.520 162.805 109.668 C 165.181 110.907,167.255 112.209,167.702 112.742 M166.641 138.952 C 154.306 140.791,151.993 143.417,151.008 156.702 C 150.508 163.442,153.722 166.766,163.511 169.634 C 165.817 170.309,167.521 171.025,168.691 171.810 L 170.434 172.980 171.363 172.319 C 171.874 171.955,172.468 171.424,172.682 171.138 C 172.897 170.853,173.829 170.222,174.754 169.735 C 177.079 168.511,179.531 166.599,180.840 164.988 C 181.447 164.242,182.681 162.931,183.583 162.076 C 186.842 158.986,186.834 158.190,183.470 151.951 C 182.745 150.604,182.054 148.952,181.936 148.279 C 181.045 143.207,177.260 139.893,170.773 138.503 C 170.520 138.449,168.661 138.651,166.641 138.952 M171.721 139.684 C 177.485 141.434,179.862 144.209,181.439 151.033 C 181.944 153.221,182.711 155.769,183.142 156.695 C 184.095 158.739,184.102 158.895,183.287 159.631 C 182.932 159.952,182.170 160.923,181.594 161.790 C 179.482 164.971,176.139 167.812,172.291 169.700 L 170.598 170.530 164.658 168.793 C 154.752 165.897,151.254 162.498,152.090 156.578 C 153.897 143.784,155.453 142.084,167.406 139.851 C 169.005 139.552,170.314 139.296,170.314 139.282 C 170.314 139.268,170.947 139.449,171.721 139.684 M251.003 140.947 C 248.405 142.127,246.496 143.716,245.024 145.924 C 243.691 147.925,242.097 149.685,238.660 152.953 C 236.486 155.020,234.882 158.041,235.163 159.538 C 235.532 161.507,239.820 167.406,240.881 167.406 C 241.072 167.406,242.181 168.995,244.818 173.046 C 245.860 174.648,248.587 176.617,250.958 177.482 C 254.413 178.742,259.410 176.766,263.922 172.355 C 265.415 170.896,267.276 169.082,268.058 168.324 C 269.901 166.538,271.606 163.019,272.225 159.720 C 272.745 156.945,269.812 151.319,266.754 149.225 C 265.748 148.536,263.951 146.986,262.761 145.780 C 260.213 143.198,258.717 142.225,255.472 141.041 C 252.653 140.012,253.043 140.020,251.003 140.947 M256.047 142.906 C 257.444 143.607,259.225 144.840,260.291 145.843 C 261.301 146.794,263.091 148.302,264.269 149.193 C 273.250 155.989,273.114 161.416,263.745 170.163 C 257.671 175.833,254.112 177.547,251.202 176.205 C 249.049 175.211,246.731 173.333,245.602 171.667 C 243.519 168.592,241.268 165.622,239.808 164.024 C 238.954 163.089,237.855 161.584,237.364 160.678 L 236.473 159.032 237.348 157.362 C 237.828 156.443,239.041 154.850,240.043 153.822 C 241.044 152.793,243.183 150.367,244.796 148.432 C 247.965 144.629,248.417 144.196,250.776 142.700 C 252.769 141.436,253.146 141.451,256.047 142.906 M177.424 197.864 C 169.646 199.145,166.727 200.720,164.513 204.831 C 163.584 206.557,164.222 217.270,165.372 219.231 C 166.217 220.674,168.517 222.928,169.687 223.461 C 170.623 223.888,175.148 229.140,175.845 230.609 C 178.095 235.349,181.941 237.053,195.562 239.345 C 198.508 239.840,202.020 240.491,203.366 240.790 C 207.495 241.709,214.513 241.203,224.484 239.270 C 235.255 237.182,238.296 235.953,240.565 232.772 C 241.055 232.085,242.044 231.006,242.763 230.376 C 246.829 226.809,247.587 226.010,248.439 224.399 C 250.839 219.858,250.983 216.862,249.224 208.128 C 248.374 203.909,246.160 200.884,242.753 199.287 L 241.010 198.470 220.505 198.442 C 208.305 198.425,198.079 198.271,195.256 198.062 C 186.978 197.448,180.394 197.375,177.424 197.864 M190.207 198.769 C 205.300 199.916,211.267 200.060,223.106 199.562 C 230.912 199.233,240.598 199.716,242.171 200.511 C 246.257 202.575,247.641 205.234,249.124 213.859 C 250.197 220.104,247.715 225.655,242.519 228.627 C 241.436 229.247,240.647 229.991,240.121 230.889 C 238.443 233.751,234.781 236.076,230.226 237.171 C 219.262 239.806,208.776 240.759,202.907 239.654 C 201.140 239.322,197.963 238.772,195.846 238.433 C 184.632 236.636,180.421 234.812,177.417 230.451 C 175.947 228.319,170.800 222.448,169.491 221.412 C 166.323 218.904,166.108 218.260,165.699 210.033 C 165.457 205.171,165.439 205.227,168.053 202.651 C 170.217 200.518,179.431 197.809,183.168 198.207 C 183.673 198.260,186.840 198.514,190.207 198.769 " stroke="none" fill="#dcccf4" fill-rule="evenodd"></path><path id="path4" d="M390.513 3.107 L 390.513 6.214 392.149 7.851 L 393.786 9.487 396.893 9.487 L 400.000 9.487 400.000 4.744 L 400.000 0.000 395.256 0.000 L 390.513 0.000 390.513 3.107 M295.333 43.641 C 285.749 44.768,280.991 46.995,278.951 51.309 C 278.057 53.198,277.710 53.391,274.675 53.683 C 273.497 53.797,270.604 54.087,268.248 54.327 C 265.891 54.567,261.140 54.985,257.689 55.254 C 254.239 55.523,249.350 56.012,246.825 56.340 C 244.300 56.668,240.513 57.145,238.409 57.401 C 236.305 57.657,233.344 58.047,231.829 58.270 C 228.810 58.713,217.678 58.471,213.925 57.881 C 210.572 57.354,200.278 56.341,194.950 56.013 C 177.133 54.918,168.405 57.036,164.714 63.351 C 164.272 64.109,163.808 64.772,163.683 64.826 C 163.558 64.879,162.364 65.579,161.029 66.382 C 159.694 67.184,157.725 68.167,156.653 68.566 C 153.968 69.566,151.872 71.677,150.894 74.369 C 150.497 75.463,149.728 77.184,149.185 78.194 C 148.643 79.204,147.957 80.685,147.661 81.486 C 147.259 82.573,146.750 83.209,145.649 84.000 C 144.838 84.583,143.652 85.763,143.013 86.622 C 142.161 87.769,141.332 88.443,139.898 89.157 C 138.823 89.692,137.344 90.657,136.612 91.300 C 135.879 91.944,134.466 92.877,133.471 93.374 C 131.297 94.461,129.368 96.469,128.338 98.716 C 127.922 99.626,127.441 100.458,127.269 100.563 C 126.693 100.919,124.878 104.001,124.241 105.704 C 123.573 107.489,120.426 111.003,118.018 112.652 C 115.711 114.232,114.550 116.698,113.709 121.806 C 113.350 123.980,111.983 128.741,111.650 128.974 C 111.597 129.011,110.922 129.403,110.150 129.844 C 103.316 133.755,101.607 142.005,101.613 171.079 C 101.619 203.348,103.227 211.003,110.654 214.106 C 112.091 214.706,112.743 216.266,113.387 220.641 C 114.464 227.959,117.965 234.117,122.135 236.031 C 122.964 236.411,123.642 236.791,123.643 236.877 C 123.643 236.962,124.250 237.954,124.991 239.082 C 125.732 240.209,126.508 241.655,126.715 242.295 C 128.029 246.357,129.994 248.390,133.905 249.736 C 135.459 250.271,139.250 252.921,139.250 253.473 C 139.250 257.528,146.821 262.279,155.897 263.918 C 158.291 264.350,159.620 264.732,159.780 265.034 C 159.915 265.287,160.356 266.257,160.762 267.191 C 163.278 272.977,168.779 274.551,189.135 275.306 C 195.664 275.549,204.439 276.468,205.289 277.000 C 205.789 277.312,206.164 277.314,207.174 277.012 C 207.868 276.804,211.151 276.506,214.470 276.349 C 217.789 276.192,222.089 275.927,224.024 275.758 C 225.960 275.590,230.367 275.307,233.818 275.129 C 250.300 274.279,256.874 272.004,259.614 266.204 C 260.358 264.628,262.483 263.725,268.484 262.431 C 272.476 261.571,274.771 259.538,275.913 255.853 C 276.694 253.329,276.673 253.349,279.283 252.655 C 283.996 251.403,286.393 249.585,287.609 246.341 C 288.401 244.227,291.090 241.464,293.103 240.695 C 296.128 239.540,297.953 236.651,298.822 231.642 C 299.321 228.766,299.702 228.254,301.731 227.734 C 306.960 226.394,309.585 221.095,310.469 210.099 C 310.577 208.753,310.875 206.650,311.132 205.426 L 311.598 203.201 313.182 202.408 C 318.693 199.651,320.121 195.053,320.802 177.872 C 321.737 154.286,319.853 143.832,313.858 139.335 C 311.310 137.423,311.364 137.552,310.643 131.759 C 308.993 118.509,307.330 115.153,301.499 113.315 C 299.529 112.694,299.481 112.603,298.858 108.221 C 298.597 106.388,298.102 103.746,297.758 102.349 C 297.195 100.060,297.178 99.723,297.585 98.936 C 298.089 97.961,299.468 93.718,299.767 92.221 C 299.942 91.349,302.705 88.141,303.281 88.141 C 303.397 88.141,304.154 87.702,304.964 87.165 C 307.578 85.433,308.845 82.624,309.838 76.358 C 311.092 68.448,311.313 66.523,311.526 61.668 C 311.689 57.965,311.918 55.958,312.321 54.707 L 312.888 52.950 312.221 52.239 C 311.853 51.849,311.552 51.331,311.550 51.090 C 311.529 48.001,307.939 44.978,302.831 43.747 C 300.057 43.078,300.108 43.079,295.333 43.641 M301.988 46.073 C 304.680 47.071,307.146 49.028,308.440 51.196 L 309.459 52.901 309.625 59.274 C 309.983 72.953,306.975 82.510,301.301 85.721 C 299.380 86.809,299.226 87.067,297.906 91.439 C 297.310 93.412,296.218 96.166,295.480 97.559 L 294.137 100.092 294.719 101.450 C 295.591 103.485,296.528 106.642,297.147 109.635 C 297.895 113.252,299.110 115.221,301.605 116.862 C 305.633 119.510,307.343 123.336,309.252 133.975 C 310.383 140.276,311.280 142.886,313.081 145.121 C 317.326 150.390,319.131 162.681,318.014 178.730 C 317.382 187.823,315.647 193.707,312.606 197.073 C 311.051 198.794,309.843 202.566,308.789 208.996 C 307.289 218.142,305.529 221.774,301.268 224.513 C 299.351 225.745,298.025 227.734,296.972 230.956 C 295.419 235.712,292.789 238.592,288.906 239.790 C 288.095 240.041,286.765 241.390,286.764 241.963 C 286.761 244.966,282.274 249.395,277.612 250.999 C 275.569 251.702,274.702 252.469,273.686 254.476 C 271.823 258.156,270.043 259.477,264.426 261.348 C 257.530 263.645,255.604 264.582,253.395 266.710 C 248.262 271.655,244.896 272.580,227.238 273.900 C 215.456 274.780,206.248 275.135,203.366 274.819 C 202.020 274.671,197.819 274.335,194.032 274.073 C 180.235 273.115,176.292 272.601,171.583 271.147 C 168.902 270.319,166.142 268.448,164.582 266.401 C 162.983 264.302,161.004 263.215,156.792 262.120 C 151.518 260.750,149.015 259.254,144.759 254.927 C 143.497 253.644,141.809 252.149,141.008 251.606 C 140.208 251.063,138.525 249.765,137.268 248.722 C 136.011 247.678,134.312 246.355,133.493 245.781 C 132.674 245.206,131.534 244.072,130.960 243.260 C 130.386 242.448,129.199 240.863,128.322 239.739 C 127.446 238.614,125.954 236.277,125.006 234.546 C 123.854 232.442,122.810 230.981,121.856 230.138 C 117.353 226.161,116.342 224.510,114.941 218.850 C 113.641 213.594,112.387 210.910,110.258 208.826 C 105.102 203.781,103.401 194.447,103.381 171.079 C 103.361 148.597,104.593 141.950,109.798 136.453 C 112.067 134.057,113.267 131.215,115.402 123.183 C 116.733 118.174,119.015 114.949,122.234 113.524 C 123.957 112.763,124.159 112.489,125.173 109.560 C 126.296 106.318,127.703 104.046,129.763 102.148 C 132.579 99.553,135.635 96.508,137.522 94.417 C 139.533 92.188,141.817 90.686,144.759 89.659 C 147.231 88.796,147.557 88.472,148.437 85.998 C 150.236 80.948,154.294 74.428,156.848 72.487 C 157.689 71.847,159.068 70.781,159.911 70.117 C 161.996 68.477,164.955 66.735,167.712 65.524 C 168.975 64.969,170.252 64.256,170.551 63.938 C 172.051 62.343,176.423 60.194,180.413 59.089 C 185.358 57.721,204.195 59.957,214.139 63.094 C 217.391 64.119,217.294 64.106,224.484 64.568 C 229.132 64.867,229.466 64.851,231.064 64.242 C 231.989 63.890,234.813 63.062,237.337 62.403 C 239.862 61.743,243.099 60.854,244.529 60.427 C 249.862 58.834,260.274 57.056,274.024 55.390 C 278.380 54.863,282.212 53.493,283.780 51.905 C 286.777 48.867,291.306 46.905,298.240 45.642 C 299.082 45.488,299.797 45.348,299.829 45.329 C 299.862 45.310,300.833 45.645,301.988 46.073 M154.552 109.690 C 149.869 112.149,147.646 114.071,145.771 117.282 C 145.153 118.339,144.027 120.168,143.268 121.347 C 142.509 122.525,141.570 124.118,141.181 124.887 C 140.182 126.865,138.548 128.676,136.517 130.055 C 134.066 131.719,133.080 133.794,132.221 139.096 C 131.867 141.284,131.366 143.886,131.109 144.879 C 130.852 145.871,130.310 148.557,129.905 150.847 C 129.500 153.138,128.959 155.769,128.703 156.695 C 128.446 157.621,127.952 159.962,127.605 161.897 C 127.257 163.833,126.686 166.563,126.335 167.964 L 125.698 170.511 126.385 176.227 C 126.815 179.801,127.344 182.746,127.797 184.086 C 128.661 186.639,129.355 189.362,129.940 192.496 C 130.176 193.762,130.575 195.692,130.827 196.787 C 131.079 197.881,131.552 200.538,131.878 202.691 C 132.700 208.120,133.987 210.892,136.662 212.995 C 137.806 213.894,139.123 215.337,139.993 216.646 C 140.784 217.836,141.558 218.888,141.713 218.984 C 142.298 219.345,144.577 223.540,145.798 226.501 L 147.067 229.577 149.050 230.399 C 152.810 231.958,154.366 232.975,157.258 235.764 C 158.855 237.303,160.450 238.837,160.803 239.174 C 161.156 239.510,161.742 240.169,162.105 240.637 C 163.351 242.242,168.828 244.541,174.596 245.880 C 178.499 246.786,185.736 250.167,187.688 251.997 C 191.774 255.828,211.228 256.833,226.353 253.993 L 229.753 253.355 231.558 251.620 C 234.596 248.702,241.199 246.059,249.683 244.364 C 254.261 243.450,256.159 242.341,257.329 239.898 C 258.351 237.764,260.427 235.835,263.036 234.597 C 266.193 233.099,269.107 230.549,270.251 228.283 C 271.316 226.172,273.422 224.009,275.295 223.102 C 277.486 222.042,279.477 219.247,280.386 215.958 C 281.644 211.405,283.753 208.402,286.955 206.606 C 293.182 203.113,294.916 159.309,289.603 139.685 L 288.483 135.547 286.414 134.172 C 283.287 132.093,281.183 128.921,280.293 124.945 C 280.000 123.633,279.587 122.941,278.219 121.472 L 276.511 119.638 274.216 119.931 C 272.953 120.092,270.406 120.314,268.554 120.425 C 265.079 120.633,263.955 120.891,259.526 122.502 C 257.485 123.244,256.600 123.767,255.421 124.928 C 250.459 129.813,241.999 131.598,223.789 131.600 C 204.961 131.602,195.639 129.778,190.815 125.145 C 188.786 123.198,185.781 121.826,181.178 120.747 C 176.454 119.640,173.614 118.352,171.385 116.307 C 170.627 115.612,169.663 114.734,169.243 114.356 C 168.822 113.978,168.129 113.251,167.702 112.742 C 167.255 112.209,165.181 110.907,162.805 109.668 L 158.684 107.520 154.552 109.690 M160.864 110.831 C 162.556 111.698,162.806 111.954,163.429 113.457 C 165.195 117.719,171.275 121.095,179.301 122.272 C 183.980 122.958,184.582 123.243,185.566 125.235 C 189.018 132.225,196.608 133.685,227.697 133.343 C 242.588 133.179,244.706 133.042,250.497 131.870 C 255.851 130.787,259.125 128.680,260.901 125.176 C 262.065 122.879,262.693 122.683,270.237 122.264 L 276.511 121.916 277.208 122.702 C 277.591 123.135,277.953 123.764,278.013 124.101 C 279.185 130.663,279.841 132.577,281.640 134.679 C 282.185 135.316,283.102 136.514,283.676 137.341 C 284.556 138.608,286.382 140.214,287.901 141.057 C 289.990 142.215,290.999 162.469,290.121 185.584 C 289.710 196.396,289.091 199.226,286.812 200.707 C 282.505 203.508,278.937 209.852,278.294 215.854 C 278.016 218.447,276.979 219.742,274.645 220.411 C 270.958 221.468,268.689 223.775,267.628 227.544 C 266.959 229.919,265.467 231.550,263.691 231.845 C 258.494 232.710,255.849 234.968,254.481 239.710 C 253.865 241.844,253.635 241.981,249.994 242.386 C 247.347 242.680,243.430 243.358,235.877 244.827 C 234.232 245.147,232.098 245.785,231.133 246.245 C 227.087 248.174,223.593 246.710,223.202 242.920 L 223.031 241.264 226.359 240.617 C 228.189 240.261,230.513 239.879,231.523 239.768 C 235.143 239.369,238.968 238.293,240.495 237.246 C 240.946 236.936,242.005 236.430,242.846 236.121 C 244.840 235.391,247.015 233.220,247.760 231.217 C 248.073 230.375,248.709 229.155,249.174 228.506 C 251.237 225.624,252.352 220.426,252.056 215.069 C 251.342 202.162,249.712 198.707,243.458 196.851 C 242.105 196.449,193.730 195.664,181.331 195.843 C 164.190 196.089,160.907 198.847,161.475 212.521 L 161.744 219.007 162.916 221.377 C 164.279 224.134,165.819 225.465,168.817 226.476 C 171.048 227.228,172.390 228.684,173.120 231.144 C 174.851 236.983,178.373 238.838,190.360 240.221 C 191.959 240.406,194.248 240.710,195.448 240.897 L 197.629 241.237 197.829 242.938 C 198.323 247.138,199.277 247.523,210.099 247.894 C 220.387 248.247,221.103 248.495,221.701 251.910 L 221.895 253.017 219.992 253.391 C 216.425 254.093,206.574 254.329,201.989 253.822 C 196.521 253.219,196.107 253.102,195.837 252.090 C 194.882 248.521,190.553 245.912,184.392 245.193 C 183.045 245.036,180.704 244.625,179.189 244.280 C 177.674 243.936,175.106 243.526,173.483 243.370 C 169.120 242.952,166.838 241.825,166.110 239.728 C 165.332 237.488,163.396 235.456,160.900 234.260 C 159.748 233.707,158.089 232.709,157.214 232.041 C 156.339 231.374,155.054 230.541,154.358 230.192 C 153.527 229.775,152.678 228.950,151.885 227.789 C 151.124 226.674,150.001 225.567,148.849 224.793 C 147.498 223.886,146.879 223.232,146.482 222.291 C 146.186 221.590,145.471 220.230,144.892 219.270 C 144.314 218.309,143.841 217.408,143.841 217.266 C 143.841 214.448,140.302 210.342,136.838 209.140 C 134.603 208.365,134.236 207.457,133.618 201.178 C 132.831 193.177,132.228 187.916,131.764 185.004 C 130.849 179.265,130.553 171.048,131.086 166.182 C 131.354 163.741,131.855 158.921,132.200 155.471 C 132.545 152.020,133.029 147.613,133.277 145.677 C 133.524 143.741,133.891 140.574,134.092 138.638 C 134.523 134.482,134.807 133.940,136.903 133.263 C 140.662 132.049,142.745 129.861,143.873 125.941 C 144.212 124.761,144.690 123.451,144.934 123.030 C 145.178 122.609,145.748 121.625,146.199 120.843 C 146.858 119.702,147.337 119.289,148.620 118.758 C 150.667 117.909,153.051 115.532,153.984 113.408 C 154.624 111.950,154.912 111.660,156.542 110.836 C 158.826 109.680,158.621 109.680,160.864 110.831 M164.040 137.278 C 153.728 138.239,150.362 140.795,149.527 148.296 C 147.862 163.264,149.669 168.299,157.352 170.102 C 159.337 170.568,159.566 170.709,160.537 172.061 C 162.222 174.406,165.502 176.440,169.275 177.479 C 171.707 178.148,175.949 175.339,177.528 172.013 C 177.921 171.185,178.524 170.378,178.869 170.218 C 179.213 170.058,180.143 169.354,180.934 168.654 C 181.726 167.953,183.341 166.896,184.522 166.305 C 189.239 163.945,190.821 160.292,189.597 154.589 C 188.296 148.530,186.859 145.623,184.089 143.450 C 183.145 142.708,182.033 141.603,181.618 140.993 C 179.396 137.722,173.240 136.421,164.040 137.278 M250.344 138.181 C 245.360 139.396,242.989 141.374,241.588 145.486 C 241.133 146.820,240.962 146.976,238.914 147.925 C 235.406 149.552,233.838 151.678,232.612 156.471 C 231.556 160.600,233.287 166.037,236.618 169.054 C 240.134 172.238,241.212 173.348,241.680 174.261 C 245.124 180.998,256.124 182.123,265.419 176.690 C 274.207 171.554,277.360 155.003,270.889 147.972 C 270.425 147.467,269.515 146.340,268.868 145.466 C 267.097 143.076,262.325 139.811,259.373 138.970 C 255.155 137.769,252.859 137.568,250.344 138.181 M172.578 138.950 C 177.626 140.256,181.143 143.762,181.936 148.279 C 182.054 148.952,182.745 150.604,183.470 151.951 C 186.834 158.190,186.842 158.986,183.583 162.076 C 182.681 162.931,181.447 164.242,180.840 164.988 C 179.531 166.599,177.079 168.511,174.754 169.735 C 173.829 170.222,172.897 170.853,172.682 171.138 C 172.468 171.424,171.874 171.955,171.363 172.319 L 170.434 172.980 168.691 171.810 C 167.521 171.025,165.817 170.309,163.511 169.634 C 151.709 166.177,149.874 163.243,151.690 150.734 C 152.581 144.595,155.272 141.494,160.998 140.011 C 163.319 139.409,170.111 138.362,170.773 138.503 C 171.025 138.557,171.838 138.758,172.578 138.950 M255.472 141.041 C 258.717 142.225,260.213 143.198,262.761 145.780 C 263.951 146.986,265.748 148.536,266.754 149.225 C 269.812 151.319,272.745 156.945,272.225 159.720 C 271.606 163.019,269.901 166.538,268.058 168.324 C 267.276 169.082,265.415 170.896,263.922 172.355 C 259.410 176.766,254.413 178.742,250.958 177.482 C 248.587 176.617,245.860 174.648,244.818 173.046 C 242.181 168.995,241.072 167.406,240.881 167.406 C 239.820 167.406,235.532 161.507,235.163 159.538 C 234.882 158.041,236.486 155.020,238.660 152.953 C 242.097 149.685,243.691 147.925,245.024 145.924 C 246.496 143.716,248.405 142.127,251.003 140.947 C 253.043 140.020,252.653 140.012,255.472 141.041 M195.256 198.062 C 198.079 198.271,208.305 198.425,220.505 198.442 L 241.010 198.470 242.753 199.287 C 246.160 200.884,248.374 203.909,249.224 208.128 C 250.983 216.862,250.839 219.858,248.439 224.399 C 247.587 226.010,246.829 226.809,242.763 230.376 C 242.044 231.006,241.055 232.085,240.565 232.772 C 238.296 235.953,235.255 237.182,224.484 239.270 C 214.513 241.203,207.495 241.709,203.366 240.790 C 202.020 240.491,198.508 239.840,195.562 239.345 C 181.941 237.053,178.095 235.349,175.845 230.609 C 175.148 229.140,170.623 223.888,169.687 223.461 C 168.517 222.928,166.217 220.674,165.372 219.231 C 164.222 217.270,163.584 206.557,164.513 204.831 C 168.033 198.294,175.680 196.610,195.256 198.062 M392.149 298.194 L 390.513 299.830 390.513 302.937 L 390.513 306.044 395.256 306.044 L 400.000 306.044 400.000 301.301 L 400.000 296.557 396.893 296.557 L 393.786 296.557 392.149 298.194 " stroke="none" fill="#e4dcf4" fill-rule="evenodd"></path></g></svg>